<svg width="24" height="24" viewBox="0 0 24 24" fill="none" xmlns="http://www.w3.org/2000/svg">
<g clip-path="url(#clip0)">
<path d="M23.1001 12.9006H0.9C0.403198 12.9006 0 12.4974 0 12.0006C0 11.5038 0.403198 11.1006 0.9 11.1006H23.1001C23.5969 11.1006 24.0001 11.5038 24.0001 12.0006C24.0001 12.4974 23.5969 12.9006 23.1001 12.9006Z" fill="white"/>
<path d="M11.9977 24.0001C11.5009 24.0001 11.0977 23.5969 11.0977 23.1001V0.9C11.0977 0.403198 11.5009 0 11.9977 0C12.4945 0 12.8977 0.403198 12.8977 0.9V23.1001C12.8977 23.5969 12.4945 24.0001 11.9977 24.0001Z" fill="white"/>
</g>
<defs>
<clipPath id="clip0">
<rect width="24" height="24" fill="white"/>
</clipPath>
</defs>
</svg>
