<svg width="238" height="238" viewBox="0 0 238 238" fill="none" xmlns="http://www.w3.org/2000/svg">
<path d="M59.3501 71.5331L13.0781 98.2463V44.5963L59.3501 17.8879V71.5331Z" fill="white"/>
<path d="M12.168 98.7699L13.0724 99.3126L60.2535 72.0758L59.3491 71.5332L12.168 98.7699Z" fill="#FAFAFA"/>
<path d="M61.9668 14.3894L11.3633 43.6063V102.278L61.9668 73.0612V14.3894ZM60.2532 72.0758L13.0769 99.3126V44.5964L60.2532 17.3549V72.0758Z" fill="#F0F0F0"/>
<path d="M60.2521 72.0762L59.3477 71.5335V17.8883L60.2521 17.3552V72.0762Z" fill="#E0E0E0"/>
<path d="M61.9645 14.3896L61.0411 13.866L10.4375 43.0781L11.3609 43.6064L61.9645 14.3896Z" fill="#FAFAFA"/>
<path d="M10.4375 43.0781L11.3609 43.6065V102.278L10.4375 101.75V43.0781Z" fill="#E0E0E0"/>
<path d="M13.8281 70.0434V71.1096L60.2524 44.268L59.348 43.7253L13.8281 70.0434Z" fill="#FAFAFA"/>
<path d="M35.2031 31.8254L36.1218 31.2922V86.0132L35.2031 85.4848V31.8254Z" fill="#E0E0E0"/>
<path d="M37.8386 30.3069L36.125 31.2922V86.0132L37.8386 85.0231V30.3069Z" fill="#F0F0F0"/>
<path d="M60.254 44.2678V46.2432L13.0586 73.5942V71.6188L60.254 44.2678Z" fill="#F0F0F0"/>
<path d="M36.123 58.253L35.2043 57.6865L13.0703 70.4766V71.619L36.123 58.253Z" fill="#FAFAFA"/>
<path d="M69.0195 34.6053L69.7859 35.0622L85.4844 25.9992L84.718 25.5422L69.0195 34.6053Z" fill="#FAFAFA"/>
<path d="M84.7212 25.5421L69.7891 34.1624V21.4628L84.7212 12.8472V25.5421Z" fill="white"/>
<path d="M86.9312 9.896L68.3672 20.6298V37.5611L86.9312 26.8321V9.896ZM85.5032 25.9991L69.7952 35.0431V21.4628L85.5032 12.4188V25.9991Z" fill="#F0F0F0"/>
<path d="M85.489 25.9992L84.7227 25.5423V12.8473L85.489 12.3999V25.9992Z" fill="#E0E0E0"/>
<path d="M86.9301 9.89605L86.1542 9.45337L67.5664 20.1824L68.3423 20.6298L86.9301 9.89605Z" fill="#FAFAFA"/>
<path d="M67.5664 20.1824L68.3423 20.6298V37.5611L67.5664 37.1185V20.1824Z" fill="#E0E0E0"/>
<path d="M84.1418 25.0707L70.3711 33.0247V31.987L73.8126 24.0378L75.9593 26.0275L75.6595 27.8696L79.9435 19.1921L84.1418 24.0378V25.0707Z" fill="#F0F0F0"/>
<path d="M75.8311 20.2013C75.5342 20.3934 75.2871 20.6532 75.11 20.9594C74.933 21.2655 74.831 21.6093 74.8125 21.9625C74.8125 22.6146 75.2647 22.8764 75.8311 22.5527C76.1279 22.3592 76.3748 22.0985 76.5518 21.7916C76.7288 21.4848 76.8309 21.1405 76.8498 20.7867C76.8498 20.1394 76.3928 19.8776 75.8311 20.2013Z" fill="#F0F0F0"/>
<path d="M69.1445 60.9615L69.9109 61.4184L85.6141 52.3554L84.8478 51.8984L69.1445 60.9615Z" fill="#FAFAFA"/>
<path d="M84.847 51.8985L69.9102 60.5189V47.8192L84.847 39.2036V51.8985Z" fill="white"/>
<path d="M87.0562 36.2524L68.4922 46.9862V63.9176L87.0562 53.1885V36.2524ZM85.6282 52.3555L69.9202 61.3995V47.8192L85.6282 38.7752V52.3555Z" fill="#F0F0F0"/>
<path d="M85.614 52.3552L84.8477 51.8982V39.2033L85.614 38.7559V52.3552Z" fill="#E0E0E0"/>
<path d="M87.0551 36.2525L86.2792 35.8098L67.6914 46.5436L68.4673 46.9863L87.0551 36.2525Z" fill="#FAFAFA"/>
<path d="M67.6914 46.5435L68.4673 46.9861V63.9175L67.6914 63.4748V46.5435Z" fill="#E0E0E0"/>
<path d="M84.2542 51.4317L70.4883 59.3809V58.3432L73.9298 50.394L76.0718 52.3837L75.7766 54.2258L80.0559 45.5483L84.2542 50.394V51.4317Z" fill="#F0F0F0"/>
<path d="M75.9444 46.5573C75.6477 46.7508 75.4008 47.0116 75.2238 47.3184C75.0468 47.6253 74.9447 47.9696 74.9258 48.3233C74.9258 48.9707 75.4018 49.2325 75.9444 48.9088C76.2405 48.7158 76.4871 48.4558 76.664 48.1498C76.841 47.8438 76.9434 47.5005 76.9631 47.1476C76.9631 46.4955 76.5061 46.2337 75.9444 46.5573Z" fill="#F0F0F0"/>
<path d="M148.904 69.9242L147.848 70.5573L131.383 61.0515L132.44 60.4185L148.904 69.9242Z" fill="#FAFAFA"/>
<path d="M132.438 60.4185L147.846 69.3101V29.4118L132.438 20.5249V60.4185Z" fill="white"/>
<path d="M129.391 62.2034L149.859 74.013V28.2551L129.391 16.4456V62.2034ZM131.371 19.9061L147.836 29.4261V70.5715L131.371 61.0515V19.9061Z" fill="#F0F0F0"/>
<path d="M131.383 61.0517L132.44 60.4186V20.525L131.383 19.9062V61.0517Z" fill="#E0E0E0"/>
<path d="M129.383 16.4456L130.459 15.8315L150.917 27.6411L149.841 28.2551L129.383 16.4456Z" fill="#FAFAFA"/>
<path d="M150.92 27.6411L149.844 28.2552V74.0178L150.92 73.399V27.6411Z" fill="#E0E0E0"/>
<path d="M133.996 59.1859L146.31 66.2926V31.2828L133.996 24.1714V59.1859Z" fill="#F0F0F0"/>
<path d="M133.996 59.1859L146.31 66.2926V31.2828L133.996 24.1714V59.1859Z" fill="#F0F0F0"/>
<path d="M146.302 54.1783C145.731 54.3768 145.141 54.5156 144.541 54.5924C142.537 54.8791 140.495 54.7479 138.544 54.2068C137.054 53.788 135.564 53.1406 133.988 53.4643V59.1763L135.654 60.1283C136.241 59.1823 137.021 58.3712 137.944 57.7483C140.324 56.2774 142.747 57.3818 145.184 57.1771C145.561 57.1418 145.935 57.0766 146.302 56.9819V54.1783Z" fill="#FAFAFA"/>
<path d="M146.307 48.3567C143.551 47.8807 140.724 47.5999 138.758 45.2008C137.173 43.2683 136.43 40.2314 135.902 37.2088C135.373 34.1862 135.021 31.0208 134.022 28.3505C134.022 28.3219 133.998 28.2981 133.988 28.2695V46.5194C134.141 46.8097 134.298 47.1001 134.464 47.3762C136.273 50.4273 138.939 52.6931 141.985 52.1695C143.413 51.922 144.889 51.0842 146.307 50.7415V48.3567Z" fill="#FAFAFA"/>
<path d="M146.309 40.9362C144.196 38.799 143.063 34.8101 143.582 30.7117C143.62 30.4071 143.667 30.1024 143.72 29.8025L138.988 27.0513C138.988 27.4939 139.022 27.9319 139.031 28.3745C139.079 30.9402 139.031 33.5677 139.417 35.9906C140.093 40.0461 142.12 43.2829 144.815 44.6109C145.292 44.8431 145.795 45.0188 146.314 45.1345L146.309 40.9362Z" fill="#FAFAFA"/>
<path d="M169.492 169.737L218.058 197.744V142.495L169.492 169.737Z" fill="#E0E0E0"/>
<g opacity="0.15">
<path opacity="0.15" d="M169.492 169.737L218.058 197.744V142.495L169.492 169.737Z" fill="black"/>
</g>
<path d="M171.797 30.6401V168.447L220.349 196.45V58.6432L171.797 30.6401ZM192.312 103.44L177.666 94.9715V39.727L192.312 48.195V103.44ZM213.59 115.716L198.891 107.257V52.0078L213.59 60.452V115.716Z" fill="#455A64"/>
<path d="M198.89 107.276L197.305 108.195L213.589 117.572V115.716L198.89 107.276Z" fill="#263238"/>
<path d="M177.664 94.9956L176.074 95.9143L192.311 105.296L193.896 104.378L177.664 94.9956Z" fill="#263238"/>
<path d="M177.665 94.9954V39.727L176.07 38.8083L176.075 95.9141L177.665 94.9954Z" fill="#37474F"/>
<path d="M197.306 108.195L192.312 105.296V48.2144L197.306 51.1132V108.195Z" fill="#455A64"/>
<path d="M197.305 108.195L198.89 107.276V52.0079L197.305 51.113V108.195Z" fill="#37474F"/>
<path opacity="0.1" d="M197.305 115.825L213.589 125.198V184.05L197.305 174.673V115.825Z" fill="black"/>
<path d="M198.422 119.529L211.017 126.773V179.505L198.422 172.26V119.529Z" fill="#455A64"/>
<path d="M213.59 125.198L211.02 126.773V179.504L213.59 184.05V125.198Z" fill="#37474F"/>
<path d="M197.305 115.825L198.423 119.528V172.26L197.305 174.673V115.825Z" fill="#37474F"/>
<path d="M197.305 174.673L198.423 172.26L211.018 179.504L213.589 184.05L197.305 174.673Z" fill="#263238"/>
<path opacity="0.1" d="M176.07 103.54L192.311 112.922L192.307 171.774L176.07 162.392V103.54Z" fill="black"/>
<path d="M177.188 107.243L189.74 114.497V167.228L177.188 159.979V107.243Z" fill="#455A64"/>
<path d="M192.313 112.922L189.742 114.497V167.228L192.308 171.774L192.313 112.922Z" fill="#37474F"/>
<path d="M176.07 103.54L177.189 107.243V159.979L176.07 162.392V103.54Z" fill="#37474F"/>
<path d="M176.07 162.392L177.189 159.979L189.741 167.228L192.307 171.774L176.07 162.392Z" fill="#263238"/>
<path d="M218.877 119.229L218.063 119.7L218.059 133.209L218.877 132.737V119.229Z" fill="#E0E0E0"/>
<path d="M218.061 119.7L213.672 117.167V130.676L218.056 133.209L218.061 119.7Z" fill="#FAFAFA"/>
<path opacity="0.05" d="M213.674 120.904L215.578 122.013V124.207C215.579 124.253 215.567 124.298 215.544 124.338C215.521 124.378 215.488 124.411 215.449 124.434C215.409 124.457 215.365 124.469 215.319 124.47C215.273 124.47 215.228 124.458 215.188 124.436L213.66 123.551L213.674 120.904Z" fill="black"/>
<path d="M213.672 117.168L214.486 116.696L218.875 119.229L218.061 119.7L213.672 117.168Z" fill="#EBEBEB"/>
<path d="M216.377 121.542L214.363 122.703L213.559 121.304L215.572 120.142C215.637 120.114 215.709 120.103 215.78 120.111C215.851 120.118 215.919 120.144 215.977 120.185C216.142 120.293 216.279 120.439 216.378 120.61C216.476 120.781 216.533 120.973 216.543 121.171C216.551 121.242 216.539 121.313 216.51 121.379C216.481 121.444 216.435 121.5 216.377 121.542Z" fill="#E0E0E0"/>
<path opacity="0.1" d="M215.591 121.994L214.863 122.418V121.456L214.082 121.004L214.815 120.58L215.591 121.033V121.994Z" fill="black"/>
<path d="M214.619 121.604L214.615 123.717L206.57 119.072V116.963L214.619 121.604Z" fill="#FAFAFA"/>
<path d="M214.622 121.604L215.35 121.185V123.293L214.617 123.717L214.622 121.604Z" fill="#E0E0E0"/>
<path d="M206.57 116.963L207.303 116.539L215.348 121.185L214.619 121.604L206.57 116.963Z" fill="#EBEBEB"/>
<path d="M216.586 127.492C216.572 127.236 216.498 126.986 216.37 126.764C216.241 126.541 216.063 126.352 215.848 126.211C215.439 125.973 215.105 126.164 215.105 126.635C215.127 127.024 215.286 127.394 215.553 127.678V129.058C215.558 129.144 215.583 129.228 215.627 129.303C215.671 129.377 215.732 129.44 215.805 129.486L215.891 129.539C216.029 129.62 216.138 129.539 216.138 129.396V128.016C216.419 128.044 216.586 127.839 216.586 127.492Z" fill="#455A64"/>
<path d="M177.664 39.7271L192.311 48.2141V103.459L177.664 94.9954V39.7271Z" fill="#0D5372"/>
<path opacity="0.4" d="M177.664 39.7271L192.311 48.2141V103.459L177.664 94.9954V39.7271Z" fill="white"/>
<path d="M198.895 52.0078L213.593 60.4663V115.716L198.895 107.281V52.0078Z" fill="#0D5372"/>
<path opacity="0.4" d="M198.895 52.0078L213.593 60.4663V115.716L198.895 107.281V52.0078Z" fill="white"/>
<path opacity="0.2" d="M188.374 45.9341L177.664 56.6441V59.4573L190.154 46.967L188.374 45.9341ZM181.91 42.188L177.664 46.4339V52.2363L185.585 44.3157L181.91 42.188ZM187.622 100.736L192.311 96.0569V93.2438L185.837 99.7174L187.622 100.736ZM198.894 51.9936V52.1412L198.989 52.0507L198.894 51.9936ZM183.49 98.3465L192.311 89.5405V86.7273L181.705 97.3326L183.49 98.3465ZM202.859 54.2736L198.894 58.2387V61.0566L204.644 55.3018L202.859 54.2736ZM209.523 58.0816L198.917 68.6869V74.4894L213.197 60.2093L209.523 58.0816ZM177.693 73.3565L192.311 58.7385V51.4081L177.664 66.0546L177.693 73.3565ZM198.917 105.815L213.616 91.116V83.8094L198.889 98.5321L198.917 105.815ZM203.082 109.623L213.616 99.089V96.2759L201.293 108.595L203.082 109.623ZM198.889 89.4881L213.588 74.7797V71.9666L198.889 86.6654V89.4881ZM177.664 95.0049L178.14 95.281L192.311 81.0962V75.2938L177.664 89.9641V95.0049ZM209.88 113.598L213.588 109.889V104.078L206.196 111.47L209.88 113.598ZM177.664 82.3053L192.311 67.6492V64.8361L177.664 79.4921V82.3053ZM198.889 80.1585V82.9717L213.588 68.2728V65.4501L198.889 80.1585Z" fill="white"/>
<path d="M222.669 195.112L220.355 196.45V58.6431L222.669 57.3103V195.112Z" fill="#263238"/>
<path d="M174.102 29.3025L222.668 57.3103L220.355 58.6431L171.793 30.6401L174.102 29.3025Z" fill="#37474F"/>
<path d="M171.791 168.447L169.492 169.737V29.3118L171.787 30.635L171.791 168.447Z" fill="#E0E0E0"/>
<path d="M169.491 169.737L162.465 165.676V17.1406L225.092 53.2595V201.786L218.057 197.745V57.3198L169.495 29.3119L169.491 169.737Z" fill="#F5F5F5"/>
<path d="M162.941 17.9642L224.616 53.5357V200.967L218.533 197.469V57.0486L218.295 56.9105L169.743 28.9027L169.029 28.4933V168.913L162.955 165.405V17.9642H162.941ZM162.479 17.1407V165.681L169.505 169.737V29.3168L218.057 57.3247V197.745L225.092 201.786V53.2739L162.465 17.136L162.479 17.1407Z" fill="#E0E0E0"/>
<path d="M162.465 17.1405L225.092 53.2594L227.348 51.9504L164.721 15.8315L162.465 17.1405Z" fill="#FAFAFA"/>
<path d="M225.09 201.786V53.2594L227.346 51.9504V200.486L225.09 201.786Z" fill="#E0E0E0"/>
<path d="M141.05 165.172C137.632 161.645 135.624 152.772 138.956 149.973H155.925C159.257 152.772 157.253 161.635 153.835 165.167L153.745 165.263L153.626 165.382C153.531 165.477 153.426 165.567 153.316 165.658L153.236 165.724C153.15 165.791 153.069 165.858 152.978 165.919C152.836 166.023 152.689 166.118 152.536 166.205C149.723 167.847 145.163 167.847 142.349 166.205C142.194 166.119 142.045 166.024 141.902 165.919L141.664 165.734L141.564 165.653C141.455 165.567 141.359 165.477 141.264 165.386L141.131 165.253L141.05 165.172Z" fill="#EBEBEB"/>
<path d="M154.453 148.869C158.323 151.125 158.323 154.79 154.453 157.051C150.583 159.312 144.3 159.312 140.43 157.051C136.56 154.79 136.56 151.125 140.43 148.869C144.3 146.613 150.578 146.608 154.453 148.869Z" fill="#FAFAFA"/>
<path d="M152.591 149.94C155.447 151.601 155.447 154.291 152.591 155.952C149.735 157.613 145.141 157.613 142.295 155.952C139.448 154.291 139.439 151.601 142.295 149.94C145.151 148.279 149.749 148.293 152.591 149.94Z" fill="#E0E0E0"/>
<path d="M142.289 152.796C145.145 151.14 149.743 151.14 152.585 152.796C153.275 153.174 153.86 153.717 154.289 154.376C153.86 155.036 153.275 155.579 152.585 155.957C149.729 157.618 145.136 157.618 142.289 155.957C141.6 155.58 141.015 155.037 140.59 154.376C141.015 153.716 141.6 153.173 142.289 152.796Z" fill="#EBEBEB"/>
<path d="M146.295 130.176C144.995 131.604 141.382 131.976 139.883 128.168C138.479 124.598 136.965 121.213 136.551 119.9C136.49 119.729 136.464 119.547 136.475 119.366C136.486 119.184 136.533 119.007 136.614 118.845C136.695 118.682 136.808 118.537 136.946 118.419C137.084 118.301 137.244 118.212 137.417 118.157C137.417 118.157 137.522 116.196 140.844 117.524C144.167 118.852 146.514 120.856 147.984 124.136C149.455 127.416 148.513 129.739 146.295 130.176Z" fill="#E0E0E0"/>
<path opacity="0.45" d="M146.295 130.176C144.995 131.604 141.382 131.976 139.883 128.168C138.479 124.598 136.965 121.213 136.551 119.9C136.49 119.729 136.464 119.547 136.475 119.366C136.486 119.184 136.533 119.007 136.614 118.845C136.695 118.682 136.808 118.537 136.946 118.419C137.084 118.301 137.244 118.212 137.417 118.157C137.417 118.157 137.522 116.196 140.844 117.524C144.167 118.852 146.514 120.856 147.984 124.136C149.455 127.416 148.513 129.739 146.295 130.176Z" fill="white"/>
<path d="M147.733 135.213C147.676 134.546 147.581 133.883 147.447 133.228C147.172 131.925 146.803 130.645 146.343 129.396C145.409 126.852 144.112 124.457 142.492 122.284C141.593 121.047 140.579 119.896 139.465 118.848C139.432 118.819 139.403 118.895 139.427 118.919C143.154 122.806 145.743 127.642 146.909 132.899C147.076 133.623 147.228 134.351 147.362 135.079C147.495 135.808 147.576 136.569 147.7 137.312C147.7 137.388 147.828 137.431 147.833 137.312C147.853 136.61 147.82 135.909 147.733 135.213Z" fill="#E0E0E0"/>
<path opacity="0.1" d="M147.733 135.213C147.676 134.546 147.581 133.883 147.447 133.228C147.172 131.925 146.803 130.645 146.343 129.396C145.409 126.852 144.112 124.457 142.492 122.284C141.593 121.047 140.579 119.896 139.465 118.848C139.432 118.819 139.403 118.895 139.427 118.919C143.154 122.806 145.743 127.642 146.909 132.899C147.076 133.623 147.228 134.351 147.362 135.079C147.495 135.808 147.576 136.569 147.7 137.312C147.7 137.388 147.828 137.431 147.833 137.312C147.853 136.61 147.82 135.909 147.733 135.213Z" fill="black"/>
<path d="M148.848 129.191C145.859 130.115 143.641 127.763 144.412 124.131C145.183 120.499 149.02 116.415 150.467 117.505C151.376 116.601 153.37 116.925 154.308 119.885C155.246 122.846 154.394 130.486 148.848 129.191Z" fill="#E0E0E0"/>
<path opacity="0.25" d="M148.848 129.191C145.859 130.115 143.641 127.763 144.412 124.131C145.183 120.499 149.02 116.415 150.467 117.505C151.376 116.601 153.37 116.925 154.308 119.885C155.246 122.846 154.394 130.486 148.848 129.191Z" fill="white"/>
<path d="M150.595 119.728C149.746 121.857 149.082 124.055 148.61 126.297C148.1 128.567 147.716 130.863 147.458 133.175C146.975 137.65 146.775 142.151 146.858 146.651C146.858 147.893 146.882 149.136 146.906 150.378C146.93 151.62 146.906 152.953 147.02 154.229C147.063 154.705 147.758 154.586 147.767 154.138C147.81 151.901 147.687 149.65 147.663 147.413C147.639 145.175 147.663 142.986 147.706 140.772C147.782 136.263 148.186 131.766 148.915 127.316C149.129 126.073 149.367 124.836 149.652 123.613C149.938 122.389 150.328 121.056 150.666 119.781C150.681 119.728 150.623 119.662 150.595 119.728Z" fill="#E0E0E0"/>
<path opacity="0.1" d="M150.595 119.728C149.746 121.857 149.082 124.055 148.61 126.297C148.1 128.567 147.716 130.863 147.458 133.175C146.975 137.65 146.775 142.151 146.858 146.651C146.858 147.893 146.882 149.136 146.906 150.378C146.93 151.62 146.906 152.953 147.02 154.229C147.063 154.705 147.758 154.586 147.767 154.138C147.81 151.901 147.687 149.65 147.663 147.413C147.639 145.175 147.663 142.986 147.706 140.772C147.782 136.263 148.186 131.766 148.915 127.316C149.129 126.073 149.367 124.836 149.652 123.613C149.938 122.389 150.328 121.056 150.666 119.781C150.681 119.728 150.623 119.662 150.595 119.728Z" fill="black"/>
<path d="M143.986 139.911C142.682 141.386 139.702 141.258 137.689 138.621C135.675 135.984 134.476 126.074 137.299 126.721C137.898 125.398 145.695 128.577 146.695 135.041C147.423 139.73 143.986 139.911 143.986 139.911Z" fill="#E0E0E0"/>
<path opacity="0.25" d="M143.986 139.911C142.682 141.386 139.702 141.258 137.689 138.621C135.675 135.984 134.476 126.074 137.299 126.721C137.898 125.398 145.695 128.577 146.695 135.041C147.423 139.73 143.986 139.911 143.986 139.911Z" fill="white"/>
<path d="M146.321 144.59C146.232 143.981 146.104 143.378 145.935 142.786C145.61 141.572 145.222 140.376 144.774 139.202C143.85 136.808 142.682 134.516 141.289 132.361C140.541 131.146 139.715 129.979 138.819 128.868C138.795 128.839 138.771 128.906 138.786 128.929C139.481 129.943 140.185 130.948 140.813 132.009C141.442 133.071 142.046 134.251 142.579 135.408C143.616 137.643 144.477 139.955 145.154 142.324C145.345 142.995 145.502 143.676 145.697 144.347C145.892 145.018 146.173 145.723 146.34 146.427C146.363 146.527 146.497 146.565 146.482 146.427C146.421 145.804 146.402 145.18 146.321 144.59Z" fill="#E0E0E0"/>
<path opacity="0.1" d="M146.321 144.59C146.232 143.981 146.104 143.378 145.935 142.786C145.61 141.572 145.222 140.376 144.774 139.202C143.85 136.808 142.682 134.516 141.289 132.361C140.541 131.146 139.715 129.979 138.819 128.868C138.795 128.839 138.771 128.906 138.786 128.929C139.481 129.943 140.185 130.948 140.813 132.009C141.442 133.071 142.046 134.251 142.579 135.408C143.616 137.643 144.477 139.955 145.154 142.324C145.345 142.995 145.502 143.676 145.697 144.347C145.892 145.018 146.173 145.723 146.34 146.427C146.363 146.527 146.497 146.565 146.482 146.427C146.421 145.804 146.402 145.18 146.321 144.59Z" fill="black"/>
<path d="M148.757 138.445C147.048 138.054 146.962 136.007 149.1 133.489C151.237 130.971 156.606 129.877 156.863 130.938C158.058 130.938 158.058 134.679 155.411 138.116C152.765 141.553 148.914 140.753 148.757 138.445Z" fill="#E0E0E0"/>
<path opacity="0.25" d="M148.757 138.445C147.048 138.054 146.962 136.007 149.1 133.489C151.237 130.971 156.606 129.877 156.863 130.938C158.058 130.938 158.058 134.679 155.411 138.116C152.765 141.553 148.914 140.753 148.757 138.445Z" fill="white"/>
<path d="M152.101 134.789C149.844 136.361 148.122 138.585 147.165 141.163C147.107 141.31 147.36 141.524 147.422 141.363C148.39 138.812 150.006 136.558 152.11 134.822C152.11 134.822 152.125 134.77 152.101 134.789Z" fill="#E0E0E0"/>
<path opacity="0.1" d="M152.101 134.789C149.844 136.361 148.122 138.585 147.165 141.163C147.107 141.31 147.36 141.524 147.422 141.363C148.39 138.812 150.006 136.558 152.11 134.822C152.11 134.822 152.125 134.77 152.101 134.789Z" fill="black"/>
<path d="M150.707 150.93C148.327 151.882 149.36 154.7 151.659 156.842C153.651 158.572 156.218 159.495 158.856 159.432C160.441 159.317 160.85 159.098 160.85 159.098C160.992 157.798 160.992 156.486 160.85 155.186C160.596 153.756 159.935 152.43 158.946 151.366C157.958 150.303 156.684 149.546 155.276 149.188C151.592 148.188 150.707 149.526 150.707 150.93Z" fill="#E0E0E0"/>
<path opacity="0.45" d="M150.707 150.93C148.327 151.882 149.36 154.7 151.659 156.842C153.651 158.572 156.218 159.495 158.856 159.432C160.441 159.317 160.85 159.098 160.85 159.098C160.992 157.798 160.992 156.486 160.85 155.186C160.596 153.756 159.935 152.43 158.946 151.366C157.958 150.303 156.684 149.546 155.276 149.188C151.592 148.188 150.707 149.526 150.707 150.93Z" fill="white"/>
<path d="M157.251 155.086C156.193 153.824 154.977 152.704 153.633 151.754C152.286 150.868 150.492 150.111 148.873 150.664C148.25 150.878 147.274 151.501 147.393 152.277C147.393 152.353 147.54 152.544 147.631 152.439C147.881 152.08 148.166 151.747 148.483 151.444C148.855 151.172 149.295 151.008 149.754 150.968C150.914 150.882 152.074 151.144 153.086 151.72C154.685 152.568 155.975 153.886 157.246 155.143C157.246 155.138 157.265 155.1 157.251 155.086Z" fill="#E0E0E0"/>
<path opacity="0.1" d="M157.251 155.086C156.193 153.824 154.977 152.704 153.633 151.754C152.286 150.868 150.492 150.111 148.873 150.664C148.25 150.878 147.274 151.501 147.393 152.277C147.393 152.353 147.54 152.544 147.631 152.439C147.881 152.08 148.166 151.747 148.483 151.444C148.855 151.172 149.295 151.008 149.754 150.968C150.914 150.882 152.074 151.144 153.086 151.72C154.685 152.568 155.975 153.886 157.246 155.143C157.246 155.138 157.265 155.1 157.251 155.086Z" fill="black"/>
<path d="M141.711 138.825C141.934 137.75 140.378 135.174 135.523 134.679C130.667 134.184 127.045 136.241 126.312 137.178C125.579 138.116 125.212 139.106 126.093 139.354C126.974 139.601 129.996 139.892 131.986 140.81C133.976 141.729 138.017 144.428 140.773 143.623C143.529 142.819 143.082 139.896 141.711 138.825Z" fill="#E0E0E0"/>
<path opacity="0.45" d="M141.711 138.825C141.934 137.75 140.378 135.174 135.523 134.679C130.667 134.184 127.045 136.241 126.312 137.178C125.579 138.116 125.212 139.106 126.093 139.354C126.974 139.601 129.996 139.892 131.986 140.81C133.976 141.729 138.017 144.428 140.773 143.623C143.529 142.819 143.082 139.896 141.711 138.825Z" fill="white"/>
<path d="M145.394 142.576C143.347 138.354 138.078 137.088 133.756 137.088C132.339 137.092 130.929 137.274 129.557 137.631C129.557 137.631 129.534 137.683 129.557 137.683C131.878 137.288 134.246 137.264 136.574 137.611C138.877 137.912 141.076 138.759 142.985 140.082C143.912 140.778 144.691 141.652 145.275 142.652C145.356 142.762 145.432 142.667 145.394 142.576Z" fill="#E0E0E0"/>
<path opacity="0.1" d="M145.394 142.576C143.347 138.354 138.078 137.088 133.756 137.088C132.339 137.092 130.929 137.274 129.557 137.631C129.557 137.631 129.534 137.683 129.557 137.683C131.878 137.288 134.246 137.264 136.574 137.611C138.877 137.912 141.076 138.759 142.985 140.082C143.912 140.778 144.691 141.652 145.275 142.652C145.356 142.762 145.432 142.667 145.394 142.576Z" fill="black"/>
<path d="M152.999 133.171C152.938 134.865 155.322 135.851 157.631 134.385C159.94 132.918 162.358 131.49 164.5 130.938C166.642 130.386 167.651 128.639 166.975 127.797C166.299 126.954 165.223 124.822 159.602 125.517C153.98 126.212 151.986 128.749 151.214 130.538C150.443 132.328 152.152 133.661 152.999 133.171Z" fill="#E0E0E0"/>
<path opacity="0.45" d="M152.999 133.171C152.938 134.865 155.322 135.851 157.631 134.385C159.94 132.918 162.358 131.49 164.5 130.938C166.642 130.386 167.651 128.639 166.975 127.797C166.299 126.954 165.223 124.822 159.602 125.517C153.98 126.212 151.986 128.749 151.214 130.538C150.443 132.328 152.152 133.661 152.999 133.171Z" fill="white"/>
<path d="M162.155 127.792C161.342 127.711 160.521 127.797 159.742 128.044C159.032 128.226 158.34 128.473 157.676 128.782C156.352 129.399 155.158 130.264 154.158 131.328C153.874 131.628 153.61 131.946 153.368 132.28C153.12 132.578 152.917 132.91 152.763 133.266C152.725 133.375 152.892 133.556 152.987 133.442C153.268 133.123 153.463 132.728 153.739 132.39C154.019 132.027 154.321 131.682 154.644 131.357C155.294 130.702 156.021 130.128 156.809 129.648C157.562 129.181 158.359 128.79 159.189 128.482C159.665 128.315 160.118 128.177 160.589 128.058C161.085 127.908 161.603 127.837 162.122 127.849C162.164 127.854 162.179 127.792 162.155 127.792Z" fill="#E0E0E0"/>
<path opacity="0.1" d="M162.155 127.792C161.342 127.711 160.521 127.797 159.742 128.044C159.032 128.226 158.34 128.473 157.676 128.782C156.352 129.399 155.158 130.264 154.158 131.328C153.874 131.628 153.61 131.946 153.368 132.28C153.12 132.578 152.917 132.91 152.763 133.266C152.725 133.375 152.892 133.556 152.987 133.442C153.268 133.123 153.463 132.728 153.739 132.39C154.019 132.027 154.321 131.682 154.644 131.357C155.294 130.702 156.021 130.128 156.809 129.648C157.562 129.181 158.359 128.79 159.189 128.482C159.665 128.315 160.118 128.177 160.589 128.058C161.085 127.908 161.603 127.837 162.122 127.849C162.164 127.854 162.179 127.792 162.155 127.792Z" fill="black"/>
<path d="M148.987 142.324C148.197 141.534 146.06 141.719 145.046 144.047C144.032 146.375 146.159 148.926 146.397 149.64C147.373 149.078 148.135 149.411 149.853 149.078C150.812 148.852 151.663 148.303 152.264 147.522C152.865 146.742 153.178 145.779 153.152 144.794C153.014 142.657 152.114 141.248 148.987 142.324Z" fill="#E0E0E0"/>
<path opacity="0.45" d="M148.987 142.324C148.197 141.534 146.06 141.719 145.046 144.047C144.032 146.375 146.159 148.926 146.397 149.64C147.373 149.078 148.135 149.411 149.853 149.078C150.812 148.852 151.663 148.303 152.264 147.522C152.865 146.742 153.178 145.779 153.152 144.794C153.014 142.657 152.114 141.248 148.987 142.324Z" fill="white"/>
<path d="M148.937 142.086C148.507 142.358 148.148 142.728 147.89 143.166C147.613 143.572 147.386 144.01 147.214 144.471C146.846 145.414 146.744 146.439 146.919 147.436C146.919 147.474 146.957 147.436 146.952 147.436C146.868 146.435 147.032 145.428 147.428 144.504C147.618 144.086 147.856 143.691 148.138 143.328C148.283 143.133 148.442 142.949 148.614 142.776C148.781 142.634 148.932 142.474 149.066 142.3C149.147 142.219 149.056 142.024 148.937 142.086Z" fill="#E0E0E0"/>
<path opacity="0.1" d="M148.937 142.086C148.507 142.358 148.148 142.728 147.89 143.166C147.613 143.572 147.386 144.01 147.214 144.471C146.846 145.414 146.744 146.439 146.919 147.436C146.919 147.474 146.957 147.436 146.952 147.436C146.868 146.435 147.032 145.428 147.428 144.504C147.618 144.086 147.856 143.691 148.138 143.328C148.283 143.133 148.442 142.949 148.614 142.776C148.781 142.634 148.932 142.474 149.066 142.3C149.147 142.219 149.056 142.024 148.937 142.086Z" fill="black"/>
<path d="M145.256 147.036C145.185 145.304 143.305 143.933 140.63 143.138C139.317 142.726 137.915 142.695 136.585 143.048C135.256 143.401 134.053 144.124 133.118 145.132C131.167 147.255 130.157 149.059 130.952 149.569C131.747 150.078 135.284 151.373 137.616 152.096C139.949 152.82 142.962 153.048 145.275 151.663C147.589 150.278 147.422 147.903 145.256 147.036Z" fill="#E0E0E0"/>
<path opacity="0.25" d="M145.256 147.036C145.185 145.304 143.305 143.933 140.63 143.138C139.317 142.726 137.915 142.695 136.585 143.048C135.256 143.401 134.053 144.124 133.118 145.132C131.167 147.255 130.157 149.059 130.952 149.569C131.747 150.078 135.284 151.373 137.616 152.096C139.949 152.82 142.962 153.048 145.275 151.663C147.589 150.278 147.422 147.903 145.256 147.036Z" fill="white"/>
<path d="M145.402 146.841C144.497 146.386 143.509 146.122 142.498 146.065C141.53 145.973 140.555 145.986 139.59 146.103C138.569 146.23 137.561 146.443 136.577 146.741C136.063 146.889 135.553 147.06 135.049 147.246C134.568 147.401 134.1 147.594 133.649 147.822C133.649 147.822 133.621 147.888 133.649 147.879C134.125 147.779 134.601 147.589 135.077 147.441C135.553 147.293 136.11 147.132 136.634 146.994C137.607 146.733 138.598 146.545 139.599 146.432C140.602 146.318 141.615 146.318 142.617 146.432C143.546 146.584 144.461 146.808 145.354 147.103C145.564 147.165 145.507 146.903 145.402 146.841Z" fill="#E0E0E0"/>
<path opacity="0.1" d="M145.402 146.841C144.497 146.386 143.509 146.122 142.498 146.065C141.53 145.973 140.555 145.986 139.59 146.103C138.569 146.23 137.561 146.443 136.577 146.741C136.063 146.889 135.553 147.06 135.049 147.246C134.568 147.401 134.1 147.594 133.649 147.822C133.649 147.822 133.621 147.888 133.649 147.879C134.125 147.779 134.601 147.589 135.077 147.441C135.553 147.293 136.11 147.132 136.634 146.994C137.607 146.733 138.598 146.545 139.599 146.432C140.602 146.318 141.615 146.318 142.617 146.432C143.546 146.584 144.461 146.808 145.354 147.103C145.564 147.165 145.507 146.903 145.402 146.841Z" fill="black"/>
<path d="M150.77 144.457C148.866 142.938 149.5 139.297 156.187 139.102C162.875 138.906 167.649 140.653 167.435 142.805C168.511 143.881 167.968 146.894 162.551 147.836C157.135 148.779 149.395 148.307 150.77 144.457Z" fill="#E0E0E0"/>
<path opacity="0.25" d="M150.77 144.457C148.866 142.938 149.5 139.297 156.187 139.102C162.875 138.906 167.649 140.653 167.435 142.805C168.511 143.881 167.968 146.894 162.551 147.836C157.135 148.779 149.395 148.307 150.77 144.457Z" fill="white"/>
<path d="M164.291 142.829C162.317 142.503 160.315 142.387 158.317 142.481C156.459 142.467 154.607 142.68 152.8 143.114C152.338 143.233 151.887 143.392 151.453 143.59C151.252 143.684 151.057 143.788 150.868 143.904C150.715 143.995 150.549 144.076 150.492 144.252C150.486 144.28 150.487 144.309 150.495 144.336C150.503 144.364 150.517 144.389 150.537 144.41C150.556 144.431 150.581 144.447 150.608 144.457C150.634 144.466 150.663 144.47 150.692 144.466C151.098 144.307 151.49 144.113 151.863 143.885C152.238 143.719 152.624 143.579 153.019 143.466C153.779 143.243 154.556 143.084 155.342 142.99C157.213 142.761 159.098 142.658 160.983 142.681C162.082 142.681 163.177 142.781 164.277 142.867C164.315 142.909 164.324 142.833 164.291 142.829Z" fill="#E0E0E0"/>
<path opacity="0.1" d="M164.291 142.829C162.317 142.503 160.315 142.387 158.317 142.481C156.459 142.467 154.607 142.68 152.8 143.114C152.338 143.233 151.887 143.392 151.453 143.59C151.252 143.684 151.057 143.788 150.868 143.904C150.715 143.995 150.549 144.076 150.492 144.252C150.486 144.28 150.487 144.309 150.495 144.336C150.503 144.364 150.517 144.389 150.537 144.41C150.556 144.431 150.581 144.447 150.608 144.457C150.634 144.466 150.663 144.47 150.692 144.466C151.098 144.307 151.49 144.113 151.863 143.885C152.238 143.719 152.624 143.579 153.019 143.466C153.779 143.243 154.556 143.084 155.342 142.99C157.213 142.761 159.098 142.658 160.983 142.681C162.082 142.681 163.177 142.781 164.277 142.867C164.315 142.909 164.324 142.833 164.291 142.829Z" fill="black"/>
<path d="M99.5227 159.936C99.4335 159.937 99.3451 159.919 99.2631 159.884C99.1812 159.849 99.1075 159.797 99.0467 159.732L75.1182 134.413L51.2325 159.641C51.1132 159.768 50.9486 159.841 50.775 159.846C50.6014 159.851 50.4329 159.787 50.3067 159.668C50.1804 159.548 50.1067 159.384 50.1018 159.21C50.0969 159.036 50.1612 158.868 50.2805 158.742L74.6422 133.038C74.7036 132.973 74.7775 132.922 74.8593 132.887C74.9411 132.852 75.0291 132.833 75.1182 132.833C75.2072 132.833 75.2952 132.852 75.377 132.887C75.4588 132.922 75.5327 132.973 75.5942 133.038L99.9939 158.861C100.055 158.921 100.103 158.992 100.135 159.071C100.168 159.15 100.185 159.235 100.185 159.32C100.185 159.405 100.168 159.49 100.135 159.569C100.103 159.648 100.055 159.719 99.9939 159.779C99.8632 159.891 99.6942 159.947 99.5227 159.936Z" fill="#263238"/>
<path d="M75.117 179.124C74.944 179.124 74.7781 179.055 74.6558 178.933C74.5335 178.811 74.4648 178.645 74.4648 178.472V136.536C74.4648 136.363 74.5335 136.197 74.6558 136.075C74.7781 135.953 74.944 135.884 75.117 135.884C75.2899 135.884 75.4558 135.953 75.5781 136.075C75.7004 136.197 75.7691 136.363 75.7691 136.536V178.472C75.7691 178.645 75.7004 178.811 75.5781 178.933C75.4558 179.055 75.2899 179.124 75.117 179.124Z" fill="#37474F"/>
<path d="M101.063 163.859C100.933 163.858 100.806 163.819 100.698 163.746C100.59 163.673 100.507 163.57 100.458 163.449L87.5827 130.9C87.5488 130.82 87.5313 130.734 87.5313 130.647C87.5312 130.56 87.5486 130.474 87.5824 130.393C87.6162 130.313 87.6657 130.24 87.728 130.18C87.7904 130.119 87.8642 130.071 87.9453 130.039C88.0263 130.008 88.1129 129.992 88.2 129.995C88.287 129.997 88.3727 130.016 88.4521 130.052C88.5314 130.088 88.6028 130.14 88.6619 130.203C88.7211 130.267 88.7668 130.342 88.7965 130.424L101.648 162.973C101.711 163.135 101.707 163.315 101.637 163.473C101.568 163.632 101.438 163.757 101.277 163.82C101.208 163.845 101.136 163.857 101.063 163.859Z" fill="#37474F"/>
<path d="M49.1687 163.859C49.0875 163.858 49.0071 163.843 48.9307 163.816C48.7705 163.751 48.6421 163.626 48.5735 163.467C48.5049 163.309 48.5016 163.13 48.5642 162.969L61.4162 130.42C61.4419 130.333 61.4854 130.253 61.5438 130.184C61.6022 130.115 61.6744 130.059 61.7556 130.019C61.8368 129.979 61.9254 129.957 62.0158 129.954C62.1061 129.95 62.1961 129.965 62.2802 129.998C62.3643 130.032 62.4406 130.082 62.5043 130.146C62.568 130.21 62.6176 130.287 62.65 130.371C62.6825 130.456 62.697 130.546 62.6927 130.636C62.6885 130.726 62.6655 130.815 62.6252 130.896L49.7732 163.445C49.725 163.566 49.6418 163.67 49.5341 163.744C49.4264 163.817 49.2992 163.857 49.1687 163.859Z" fill="#37474F"/>
<path d="M100.179 158.946L101.879 163.43C101.883 163.468 101.883 163.506 101.879 163.544C101.884 163.573 101.884 163.602 101.879 163.63C101.831 163.753 101.74 163.853 101.622 163.911C101.462 163.993 101.285 164.036 101.105 164.036C100.926 164.036 100.749 163.993 100.589 163.911C100.5 163.866 100.43 163.792 100.389 163.702V163.64L98.8086 159.432L100.179 158.946Z" fill="#E0E0E0"/>
<path d="M50.056 158.946L48.3567 163.43C48.3498 163.468 48.3498 163.507 48.3567 163.544V163.63C48.4074 163.751 48.4982 163.85 48.6138 163.911C48.7735 163.993 48.9506 164.036 49.1302 164.036C49.3099 164.036 49.4869 163.993 49.6467 163.911C49.7352 163.864 49.8068 163.791 49.8514 163.702V163.64L51.4269 159.432L50.056 158.946Z" fill="#E0E0E0"/>
<path d="M75.8713 175.226V178.938C75.8652 179.004 75.8417 179.067 75.8032 179.12C75.7647 179.174 75.7126 179.216 75.6524 179.243C75.4882 179.327 75.3063 179.371 75.1217 179.371C74.9371 179.371 74.7551 179.327 74.5909 179.243C74.53 179.216 74.4773 179.174 74.438 179.121C74.3987 179.067 74.3743 179.004 74.3672 178.938V175.226C74.5984 175.101 74.8568 175.036 75.1193 175.036C75.3817 175.036 75.6401 175.101 75.8713 175.226Z" fill="#E0E0E0"/>
<path d="M99.5462 132.876C99.5462 131.971 98.7465 130.996 97.0614 129.905C93.9484 127.882 82.6958 121.337 78.3356 118.905C78.3336 118.896 78.3288 118.888 78.322 118.882C78.3151 118.876 78.3066 118.873 78.2975 118.872C74.9417 116.835 72.9806 101.207 70.6577 93.8437C70.523 93.3834 70.3641 92.9306 70.1817 92.4871C70.1817 92.4538 70.1532 92.4205 70.1436 92.3871C70.1341 92.3538 70.0532 92.192 70.0103 92.0873C69.9675 91.9826 69.9628 91.9873 69.9437 91.9397C69.5763 91.1005 69.0493 90.3406 68.3919 89.7025C68.1681 89.4862 67.913 89.3049 67.6351 89.1646L66.2642 88.3983C63.9842 87.0322 58.6054 89.9357 54.8783 91.9778C52.5602 93.2487 50.5943 94.7576 49.3805 97.5708C48.7291 99.1868 48.3402 100.897 48.2286 102.635C47.9001 106.52 49.1806 120.876 49.947 126.497C51.0846 135.894 52.4888 135.908 54.5213 137.479C58.0247 140.187 68.0968 145.49 71.4241 146.799C77.4502 149.179 82.3721 145.514 86.0515 143.7C90.2114 141.563 94.2595 139.215 98.18 136.665C99.0939 135.998 99.5747 135.322 99.5652 134.608C99.5414 134.328 99.5462 133.176 99.5462 132.876Z" fill="#E0E0E0"/>
<path d="M86.032 141.953C90.1919 139.816 94.24 137.468 98.1605 134.918C100.25 133.4 100.064 131.848 97.0609 129.906C92.9007 127.207 75.9408 117.582 75.9408 117.582C75.9408 117.582 52.1027 131.505 53.0262 133.842C53.9496 136.179 67.2205 143.405 71.4045 145.052C77.4307 147.422 82.3478 143.753 86.032 141.953Z" fill="#F5F5F5"/>
<path d="M67.6179 89.1649C65.3616 87.9844 60.0352 90.8594 56.4033 92.8491C54.0804 94.1248 52.1193 95.6337 50.896 98.4564L49.3633 97.5806C50.5676 94.7674 52.543 93.2585 54.8611 91.9876C58.5882 89.9455 63.967 87.0419 66.247 88.408L67.6179 89.1649Z" fill="#F5F5F5"/>
<path d="M70.6568 93.8439C70.6045 93.6869 69.8286 90.9879 68.372 89.7027C67.6979 89.0886 66.8183 88.749 65.9063 88.7507C63.9357 88.7507 59.1757 91.3211 56.3863 92.8396L55.7009 93.2299L55.4438 93.3822L55.1392 93.5774L54.9107 93.7249C54.4219 94.0461 53.9559 94.4008 53.516 94.7864C53.4446 94.8483 53.3732 94.9102 53.3066 94.9768C53.0262 95.236 52.7608 95.5109 52.5117 95.8003L52.3784 95.9574L52.2213 96.1525L52.069 96.3525L51.9214 96.5619C51.7215 96.8468 51.5372 97.1424 51.3693 97.4473L51.3026 97.5663C51.2551 97.6479 51.2122 97.7321 51.1741 97.8185C51.1122 97.9423 51.0504 98.0661 50.9932 98.1898C50.2739 99.8741 49.8489 101.669 49.7366 103.497C49.1987 109.88 51.3264 132.743 53.5446 134.561C53.5446 134.561 54.0206 132.657 57.6192 129.72C61.1048 126.952 64.8163 124.481 68.7147 122.333C76.0451 118.201 78.2966 118.853 78.2966 118.853C74.9408 116.835 72.9797 101.208 70.6568 93.8439Z" fill="#EBEBEB"/>
<path d="M60.6178 182.813C60.5289 182.812 60.4409 182.794 60.3591 182.759C60.2774 182.723 60.2035 182.672 60.1418 182.608L36.2133 157.285L12.3324 182.513C12.2736 182.575 12.2032 182.626 12.1249 182.661C12.0467 182.696 11.9624 182.716 11.8766 182.718C11.7909 182.721 11.7054 182.707 11.6252 182.676C11.5449 182.646 11.4715 182.6 11.409 182.541C11.3465 182.483 11.2961 182.412 11.2609 182.334C11.2256 182.256 11.2061 182.171 11.2034 182.086C11.2008 182 11.215 181.914 11.2454 181.834C11.2758 181.754 11.3216 181.68 11.3804 181.618L35.7373 155.914C35.7981 155.849 35.8718 155.797 35.9538 155.761C36.0357 155.726 36.1241 155.708 36.2133 155.709C36.3025 155.708 36.3909 155.726 36.4729 155.761C36.5548 155.797 36.6285 155.849 36.6893 155.914L61.0938 181.737C61.1792 181.83 61.2356 181.947 61.2565 182.071C61.2774 182.196 61.2617 182.324 61.2114 182.441C61.1611 182.557 61.0784 182.656 60.9731 182.726C60.8678 182.796 60.7444 182.835 60.6178 182.836V182.813Z" fill="#263238"/>
<path d="M36.2224 201.986C36.0519 201.986 35.8882 201.919 35.7663 201.8C35.6444 201.681 35.574 201.519 35.5703 201.348V159.413C35.5703 159.327 35.5872 159.242 35.62 159.163C35.6527 159.084 35.7008 159.012 35.7613 158.952C35.8219 158.891 35.8938 158.843 35.9729 158.81C36.052 158.777 36.1368 158.76 36.2224 158.76C36.3081 158.76 36.3929 158.777 36.472 158.81C36.5511 158.843 36.623 158.891 36.6836 158.952C36.7441 159.012 36.7921 159.084 36.8249 159.163C36.8577 159.242 36.8746 159.327 36.8746 159.413V201.348C36.8708 201.519 36.8005 201.681 36.6786 201.8C36.5567 201.919 36.3929 201.986 36.2224 201.986Z" fill="#37474F"/>
<path d="M62.1627 186.721C62.0312 186.721 61.9027 186.682 61.794 186.608C61.6852 186.534 61.6014 186.429 61.5534 186.306L48.7014 153.758C48.6702 153.678 48.6548 153.593 48.6564 153.508C48.6579 153.423 48.6761 153.339 48.7102 153.26C48.7442 153.182 48.7933 153.111 48.8547 153.052C48.9161 152.993 48.9885 152.946 49.0679 152.915C49.1473 152.884 49.2321 152.868 49.3174 152.87C49.4027 152.871 49.4869 152.89 49.5651 152.924C49.6433 152.958 49.7141 153.007 49.7734 153.068C49.8326 153.13 49.8792 153.202 49.9105 153.282L62.7625 185.83C62.794 185.91 62.8096 185.995 62.8082 186.08C62.8069 186.165 62.7886 186.25 62.7546 186.328C62.7205 186.406 62.6713 186.477 62.6097 186.536C62.5482 186.596 62.4755 186.642 62.3959 186.673C62.322 186.704 62.2428 186.72 62.1627 186.721Z" fill="#37474F"/>
<path d="M10.2703 186.721C10.1885 186.721 10.1075 186.705 10.0323 186.673C9.87151 186.61 9.74215 186.486 9.67256 186.328C9.60297 186.171 9.59881 185.991 9.661 185.83L22.513 153.282C22.5792 153.125 22.7039 153 22.8606 152.934C23.0172 152.868 23.1935 152.866 23.3518 152.928C23.5101 152.99 23.6378 153.112 23.7079 153.267C23.7779 153.422 23.7847 153.598 23.7268 153.758L10.8748 186.306C10.8271 186.428 10.744 186.533 10.6362 186.606C10.5284 186.68 10.4009 186.72 10.2703 186.721Z" fill="#37474F"/>
<path d="M61.2763 181.832L62.9756 186.316C62.9825 186.354 62.9825 186.392 62.9756 186.43V186.511C62.9269 186.634 62.8357 186.735 62.7186 186.797C62.558 186.879 62.3801 186.922 62.1997 186.922C62.0193 186.922 61.8414 186.879 61.6809 186.797C61.5934 186.748 61.5234 186.673 61.481 186.583V186.521L59.9102 182.308L61.2763 181.832Z" fill="#E0E0E0"/>
<path d="M11.156 181.832L9.45666 186.316C9.45207 186.354 9.45207 186.392 9.45666 186.43C9.45195 186.457 9.45195 186.484 9.45666 186.511C9.50221 186.636 9.59433 186.738 9.7137 186.797C9.87343 186.879 10.0505 186.922 10.2302 186.922C10.4098 186.922 10.5869 186.879 10.7466 186.797C10.8356 186.75 10.9061 186.675 10.9465 186.583V186.521L12.5269 182.308L11.156 181.832Z" fill="#E0E0E0"/>
<path d="M36.969 198.088V201.796C36.9627 201.862 36.9387 201.926 36.8993 201.981C36.86 202.035 36.8068 202.078 36.7453 202.105C36.5804 202.187 36.3987 202.23 36.2145 202.23C36.0303 202.23 35.8487 202.187 35.6838 202.105C35.6229 202.078 35.5704 202.035 35.5319 201.98C35.4933 201.926 35.4702 201.862 35.4648 201.796V198.088C35.6961 197.963 35.9545 197.898 36.2169 197.898C36.4794 197.898 36.7378 197.963 36.969 198.088Z" fill="#E0E0E0"/>
<path d="M60.6468 155.739C60.6468 154.835 59.8471 153.859 58.1573 152.769C55.0442 150.746 43.7916 144.201 39.4314 141.768C39.4297 141.759 39.4251 141.75 39.4183 141.743C39.4115 141.737 39.4028 141.732 39.3934 141.73C36.0614 139.698 34.0764 124.071 31.7536 116.707C31.6177 116.247 31.4588 115.794 31.2776 115.35L31.2347 115.25L31.1014 114.951C31.1014 114.903 31.0586 114.851 31.0348 114.803C30.6675 113.962 30.1405 113.201 29.483 112.561C29.2539 112.35 28.9978 112.171 28.7214 112.028C28.3454 111.814 27.5505 111.376 27.3553 111.257C25.0753 109.895 19.6917 112.799 15.9694 114.841C13.6513 116.112 11.6854 117.621 10.4716 120.434C9.81794 122.049 9.42898 123.76 9.31968 125.499C8.98648 129.383 10.2717 143.739 11.038 149.361C12.1804 158.757 13.5799 158.776 15.6172 160.347C19.1205 163.055 29.1879 168.358 32.5152 169.667C38.5461 172.047 43.4632 168.382 47.1474 166.563C51.306 164.428 55.3526 162.082 59.2711 159.533C60.1898 158.866 60.6658 158.19 60.6563 157.476C60.6372 157.191 60.6468 156.039 60.6468 155.739Z" fill="#E0E0E0"/>
<path d="M47.1241 164.81C51.2817 162.673 55.3281 160.327 59.2478 157.78C61.3374 156.261 61.1518 154.71 58.1482 152.767C53.988 150.069 37.0281 140.444 37.0281 140.444C37.0281 140.444 13.2043 154.367 14.1277 156.699C15.0512 159.032 28.322 166.267 32.5013 167.914C38.556 170.284 43.4589 166.629 47.1241 164.81Z" fill="#F5F5F5"/>
<path d="M28.713 112.027C26.4567 110.842 21.1303 113.721 17.5032 115.711C15.1755 116.982 13.1954 118.496 11.9959 121.318L10.4727 120.428C11.6769 117.615 13.6523 116.106 15.9705 114.835C19.6928 112.793 25.0763 109.89 27.3564 111.251C27.542 111.384 28.3369 111.813 28.713 112.027Z" fill="#F5F5F5"/>
<path d="M31.7553 116.706C31.7077 116.549 30.9318 113.85 29.4753 112.56C28.7968 111.95 27.9173 111.611 27.0048 111.608C25.0342 111.608 20.2742 114.178 17.4848 115.697C17.2516 115.825 17.0088 115.954 16.7994 116.087C16.709 116.135 16.6233 116.187 16.5376 116.239L16.233 116.435C16.1555 116.479 16.0808 116.529 16.0092 116.582C15.5198 116.903 15.0522 117.256 14.6098 117.639C14.5384 117.701 14.4718 117.763 14.4004 117.834C14.1203 118.092 13.8564 118.367 13.6102 118.657L13.4769 118.815C13.4246 118.876 13.3674 118.943 13.3198 119.01C13.2722 119.076 13.2199 119.143 13.1675 119.21C13.1152 119.276 13.0676 119.343 13.02 119.414C12.8184 119.701 12.6325 119.998 12.463 120.304C12.438 120.342 12.4157 120.382 12.3964 120.423L12.2679 120.671C12.206 120.795 12.1489 120.923 12.087 121.047C11.3665 122.731 10.9414 124.526 10.8304 126.354C10.2925 132.738 12.4202 155.6 14.6384 157.418C14.6384 157.418 15.1144 155.514 18.7177 152.577C22.2047 149.809 25.9197 147.341 29.8228 145.199C37.1484 141.068 39.3999 141.715 39.3999 141.715C36.0441 139.697 34.0782 124.07 31.7553 116.706Z" fill="#EBEBEB"/>
<path d="M118.143 222.421C139.776 222.421 157.313 212.296 157.313 199.806C157.313 187.316 139.776 177.191 118.143 177.191C96.5097 177.191 78.9727 187.316 78.9727 199.806C78.9727 212.296 96.5097 222.421 118.143 222.421Z" fill="#E0E0E0"/>
<path d="M56.5429 215.243L44.8476 208.488C42.8008 207.308 42.8008 205.394 44.8476 204.204L80.857 183.413C82.0047 182.831 83.2734 182.527 84.5603 182.527C85.8471 182.527 87.1159 182.831 88.2636 183.413L99.9589 190.177C102.006 191.357 102.006 193.271 99.9589 194.461L63.9495 215.252C62.801 215.833 61.5319 216.135 60.2451 216.133C58.9582 216.131 57.6899 215.826 56.5429 215.243Z" fill="#E0E0E0"/>
<path d="M92.6949 145.628L83.7413 140.458H83.708L83.6413 140.42C79.2241 137.916 73.1693 138.302 66.4435 142.177C52.9441 149.94 41.9961 168.913 41.9961 184.498C41.9961 192.247 44.7045 197.697 49.079 200.272L49.1456 200.31H49.1789L58.1325 205.48L59.689 201.391C62.063 200.78 64.3386 199.836 66.4482 198.587C79.9476 190.795 90.8908 171.841 90.8908 156.252C90.9104 153.819 90.59 151.395 89.9388 149.05L92.6949 145.628Z" fill="#0D5372"/>
<path opacity="0.4" d="M92.6949 145.628L83.7413 140.458H83.708L83.6413 140.42C79.2241 137.916 73.1693 138.302 66.4435 142.177C52.9441 149.94 41.9961 168.913 41.9961 184.498C41.9961 192.247 44.7045 197.697 49.079 200.272L49.1456 200.31H49.1789L58.1325 205.48L59.689 201.391C62.063 200.78 64.3386 199.836 66.4482 198.587C79.9476 190.795 90.8908 171.841 90.8908 156.252C90.9104 153.819 90.59 151.395 89.9388 149.05L92.6949 145.628Z" fill="white"/>
<path opacity="0.4" d="M42.2103 180.69C42.0736 181.955 42.0021 183.226 41.9961 184.498C41.9961 192.247 44.7045 197.697 49.079 200.272L49.1456 200.31H49.1789L58.1325 205.48L59.689 201.391C60.1936 201.262 60.7077 201.115 61.2313 200.943L63.5399 192.975L42.2103 180.69Z" fill="#0D5372"/>
<path d="M92.7827 185.594C102.328 169.061 102.328 151.19 92.7815 145.679C83.2354 140.167 67.7587 149.102 58.2132 165.636C48.6678 182.169 48.6683 200.039 58.2144 205.551C67.7605 211.062 83.2372 202.127 92.7827 185.594Z" fill="#0D5372"/>
<path d="M64.5764 203.333C58.5121 203.333 54.8945 198.245 54.8945 189.729C54.8945 175.63 65.2095 157.766 77.4141 150.721C80.6176 148.874 83.7259 147.898 86.4105 147.898C92.4747 147.898 96.0923 152.982 96.0923 161.502C96.0923 175.597 85.7774 193.461 73.5728 200.51C70.3741 202.357 67.261 203.333 64.5764 203.333Z" fill="#0D5372"/>
<path opacity="0.15" d="M64.5764 203.333C58.5121 203.333 54.8945 198.245 54.8945 189.729C54.8945 175.63 65.2095 157.766 77.4141 150.721C80.6176 148.874 83.7259 147.898 86.4105 147.898C92.4747 147.898 96.0923 152.982 96.0923 161.502C96.0923 175.597 85.7774 193.461 73.5728 200.51C70.3741 202.357 67.261 203.333 64.5764 203.333Z" fill="black"/>
<path d="M93.8408 160.165C93.8408 154.738 92.37 150.716 89.7377 148.503C88.6752 148.092 87.5446 147.887 86.4057 147.898C83.7211 147.898 80.6128 148.874 77.4093 150.721C65.2142 157.766 54.8945 175.644 54.8945 189.729C54.8945 195.151 56.3654 199.178 58.9977 201.391C60.0611 201.798 61.1911 202.003 62.3297 201.996C65.0143 201.996 68.1226 201.02 71.3213 199.173C83.5307 192.123 93.8408 174.259 93.8408 160.165Z" fill="#FAFAFA"/>
<path d="M81.7951 178.667C81.6648 178.667 81.5357 178.643 81.4142 178.596L71.6562 174.84L81.4 156.566C81.461 156.435 81.5481 156.317 81.6561 156.221C81.7641 156.124 81.8906 156.051 82.0279 156.005C82.1652 155.959 82.3105 155.941 82.4548 155.953C82.5992 155.965 82.7396 156.006 82.8675 156.074C82.9954 156.142 83.1081 156.235 83.1987 156.348C83.2893 156.461 83.356 156.592 83.3946 156.731C83.4332 156.871 83.443 157.017 83.4233 157.16C83.4036 157.304 83.3549 157.442 83.2802 157.566L74.7122 173.717L82.1806 176.596C82.413 176.686 82.6067 176.854 82.7281 177.072C82.8495 177.289 82.8909 177.542 82.8451 177.787C82.7993 178.032 82.6692 178.253 82.4774 178.412C82.2856 178.571 82.0442 178.658 81.7951 178.657V178.667Z" fill="#37474F"/>
<path d="M73.2421 178.3C74.2565 177.639 75.1006 176.748 75.706 175.699C76.3114 174.65 76.661 173.474 76.7265 172.265C76.7265 170.042 75.1652 169.142 73.2421 170.251C72.2274 170.913 71.3831 171.805 70.7777 172.855C70.1723 173.904 69.8229 175.082 69.7578 176.292C69.7578 178.5 71.3191 179.414 73.2421 178.3Z" fill="#455A64"/>
<path d="M73.2454 195.636C72.9598 195.803 72.7266 195.636 72.7266 195.298V191.195C72.7315 191.007 72.7811 190.822 72.8713 190.657C72.9615 190.491 73.0897 190.349 73.2454 190.243C73.531 190.081 73.7642 190.243 73.7642 190.586V194.684C73.7597 194.873 73.7103 195.057 73.6201 195.223C73.5298 195.389 73.4014 195.53 73.2454 195.636Z" fill="#0D5372"/>
<path d="M73.2016 159.755C72.916 159.922 72.6875 159.755 72.6875 159.417V155.31C72.6915 155.121 72.7402 154.937 72.8296 154.771C72.919 154.606 73.0465 154.464 73.2016 154.358C73.4872 154.196 73.7204 154.358 73.7204 154.7V158.803C73.7155 158.992 73.6659 159.176 73.5757 159.342C73.4855 159.507 73.3573 159.649 73.2016 159.755Z" fill="#0D5372"/>
<path d="M55.8477 185.226C55.8616 185.041 55.9193 184.861 56.0162 184.702C56.113 184.543 56.2461 184.41 56.4046 184.312L59.9794 182.261C60.2888 182.084 60.5316 182.208 60.5316 182.537C60.5166 182.722 60.4584 182.901 60.3616 183.06C60.2649 183.218 60.1324 183.352 59.9746 183.451L56.4237 185.502C56.0905 185.683 55.843 185.559 55.8477 185.226Z" fill="#0D5372"/>
<path d="M86.75 167.343C86.765 167.158 86.8232 166.978 86.9199 166.82C87.0166 166.661 87.1492 166.527 87.3069 166.429L90.8626 164.373C91.1673 164.196 91.4148 164.32 91.41 164.653C91.3961 164.839 91.3384 165.018 91.2416 165.177C91.1448 165.336 91.0116 165.47 90.8531 165.567L87.3022 167.619C86.9975 167.795 86.75 167.671 86.75 167.343Z" fill="#0D5372"/>
<path d="M98.0243 191.299C98.5003 184.844 97.7196 177.752 98.2527 167.68C98.3003 165.1 98.3955 162.334 98.5669 159.873C99.1524 151.61 100.428 148.783 100.542 147.188C100.542 147.188 101.171 131.342 101.708 113.254C101.966 104.743 104.431 102.168 106.402 97.6506H129.821C132.439 108.794 133.182 133.103 133.105 144.589C133.063 150.444 130.702 181.774 130.654 182.493C130.487 185.049 130.711 186.058 131.711 187.134C133.81 189.385 136.852 191.532 139.479 193.493C139.098 194.498 135.938 194.445 134.372 193.698C132.319 192.629 130.363 191.384 128.526 189.976C126.365 188.376 123.604 187.091 123.566 184.659C123.557 184.512 123.533 184.367 123.495 184.226C123.457 182.798 120.163 161.854 119.868 156.984C119.63 152.8 120.139 145.708 120.139 145.708L117.44 127.996C117.44 127.996 115.37 141.443 113.689 148.592C112.319 154.409 110.058 164.338 108.52 171.497C107.04 179.751 104.912 187.767 104.536 191.899C104.426 192.884 103.308 202.561 102.846 204.779C102.384 206.997 97.5863 207.059 97.2531 203.251C97.0485 200.705 97.9386 192.513 98.0243 191.299Z" fill="#9E6767"/>
<path d="M143.953 196.064C144.086 196.064 144.305 197.535 143.586 198.168C142.753 198.901 140.307 200.115 137.051 199.729C133.795 199.344 132.024 198.358 130.71 197.282C129.397 196.207 127.559 194.688 126.084 194.384C124.713 194.093 123.228 193.493 122.78 193.075C122.333 192.656 122.38 190.78 122.38 190.78L143.953 196.064Z" fill="#263238"/>
<path d="M123.436 183.535C123.436 183.535 123.188 183.535 123.112 183.983C123.017 184.502 122.926 186.006 122.717 186.839C122.398 188.338 122.307 189.877 122.445 191.404C122.636 192.356 124.873 193.008 126.301 193.536C127.983 194.249 129.548 195.212 130.942 196.392C132.484 197.639 135.702 198.867 137.83 198.877C141.067 198.877 143.151 197.987 143.789 196.821C144.575 195.393 143.937 194.545 140.2 192.86C139.491 192.541 137.006 191.109 136.159 190.585C135.259 190.037 134.406 189.416 133.608 188.729C133.205 188.381 132.822 188.011 132.46 187.619C132.085 187.271 131.764 186.868 131.508 186.425C131.466 186.33 131.437 186.215 131.399 186.111C131.289 185.83 131.205 185.54 131.147 185.244C131.085 184.935 131.042 184.487 130.742 184.292C130.321 184.123 129.861 184.074 129.414 184.149C128.934 184.189 128.456 184.262 127.986 184.368C127.439 184.497 126.81 184.554 126.491 185.068C126.277 185.486 126.176 185.951 126.196 186.42C126.196 186.639 126.196 186.858 126.196 187.072C126.196 187.167 126.239 187.334 126.111 187.296C125.982 187.258 125.844 186.939 125.796 186.82C125.692 186.582 125.62 186.32 125.506 186.082C125.377 185.805 125.218 185.543 125.03 185.301C124.856 185.08 124.657 184.88 124.435 184.706C124.212 184.586 123.998 184.45 123.793 184.302C123.603 184.086 123.479 183.82 123.436 183.535Z" fill="#37474F"/>
<path d="M140.803 193.165C136.119 193.536 134.677 196.444 134.496 198.234C135.566 198.626 136.69 198.851 137.828 198.901C141.065 198.901 143.283 198.01 143.921 196.844C144.659 195.478 144.135 194.388 140.803 193.165Z" fill="#FAFAFA"/>
<path d="M133.784 193.284C133.73 193.287 133.678 193.27 133.636 193.236C133.613 193.217 133.593 193.194 133.579 193.167C133.564 193.141 133.555 193.112 133.552 193.081C133.549 193.051 133.552 193.021 133.561 192.992C133.569 192.963 133.584 192.936 133.603 192.913C134.142 192.343 134.797 191.895 135.524 191.6C136.25 191.304 137.032 191.168 137.816 191.199C137.847 191.202 137.877 191.211 137.905 191.225C137.933 191.24 137.958 191.26 137.978 191.284C137.998 191.308 138.013 191.336 138.022 191.366C138.032 191.396 138.035 191.427 138.032 191.458C138.029 191.49 138.02 191.52 138.006 191.548C137.991 191.576 137.971 191.6 137.947 191.62C137.923 191.641 137.895 191.656 137.865 191.665C137.836 191.674 137.804 191.678 137.773 191.675C137.066 191.654 136.362 191.78 135.706 192.045C135.051 192.311 134.458 192.71 133.965 193.217C133.942 193.241 133.913 193.26 133.882 193.271C133.851 193.283 133.817 193.287 133.784 193.284Z" fill="#F0F0F0"/>
<path d="M131.753 192.132C131.701 192.133 131.651 192.116 131.61 192.084C131.563 192.046 131.532 191.991 131.525 191.93C131.518 191.87 131.535 191.809 131.572 191.761C132.112 191.19 132.767 190.742 133.495 190.447C134.222 190.151 135.005 190.015 135.789 190.047C135.821 190.047 135.853 190.053 135.883 190.066C135.912 190.078 135.939 190.097 135.961 190.121C135.982 190.144 135.999 190.172 136.009 190.203C136.019 190.233 136.023 190.265 136.02 190.297C136.017 190.329 136.007 190.36 135.992 190.388C135.976 190.416 135.954 190.44 135.928 190.459C135.903 190.478 135.873 190.492 135.842 190.499C135.81 190.506 135.778 190.506 135.746 190.499C135.039 190.479 134.335 190.607 133.68 190.873C133.024 191.139 132.431 191.539 131.938 192.046C131.917 192.075 131.889 192.097 131.856 192.112C131.824 192.127 131.788 192.134 131.753 192.132Z" fill="#F0F0F0"/>
<path d="M129.867 190.809C129.814 190.81 129.762 190.793 129.719 190.761C129.672 190.723 129.642 190.668 129.634 190.607C129.627 190.547 129.644 190.486 129.681 190.438C130.222 189.868 130.878 189.421 131.605 189.126C132.332 188.83 133.114 188.693 133.899 188.724C133.929 188.726 133.958 188.735 133.985 188.748C134.012 188.762 134.035 188.781 134.055 188.804C134.074 188.827 134.089 188.854 134.098 188.883C134.107 188.911 134.111 188.941 134.108 188.972C134.106 189.002 134.097 189.031 134.083 189.058C134.069 189.085 134.05 189.109 134.026 189.128C134.002 189.147 133.975 189.161 133.946 189.17C133.917 189.178 133.886 189.18 133.856 189.176C133.149 189.157 132.445 189.284 131.79 189.551C131.134 189.817 130.541 190.216 130.048 190.723C130.027 190.751 130 190.774 129.968 190.788C129.936 190.803 129.902 190.81 129.867 190.809Z" fill="#F0F0F0"/>
<path d="M128.048 189.485C127.997 189.486 127.946 189.47 127.906 189.438C127.858 189.401 127.826 189.347 127.818 189.287C127.81 189.227 127.826 189.167 127.863 189.119C128.748 187.976 130.766 187.215 132.47 187.377C132.502 187.379 132.532 187.388 132.56 187.403C132.588 187.418 132.612 187.437 132.632 187.461C132.652 187.486 132.668 187.513 132.677 187.543C132.686 187.573 132.69 187.605 132.687 187.636C132.684 187.667 132.675 187.698 132.661 187.725C132.646 187.753 132.626 187.778 132.602 187.798C132.578 187.818 132.55 187.833 132.52 187.843C132.49 187.852 132.459 187.855 132.428 187.853C130.895 187.705 129.01 188.41 128.224 189.423C128.201 189.446 128.174 189.463 128.143 189.474C128.113 189.485 128.08 189.489 128.048 189.485Z" fill="#F0F0F0"/>
<path d="M104.372 206.507C104.243 208.716 103.896 210.182 103.115 211.477C102.334 212.771 100.854 213.176 99.3547 212.8C97.8553 212.424 95.9417 211.405 95.5086 209.501C95.0754 207.597 94.8327 206.288 95.1706 204.237L104.372 206.507Z" fill="#263238"/>
<path d="M98.0619 190.509C97.4478 190.556 97.2622 193.522 96.91 196.492C96.5292 199.677 95.5772 200.995 95.2344 203.604C94.8441 206.588 95.3392 207.916 96.3864 209.72C97.4336 211.524 101.146 213.295 102.95 210.71C104.436 208.606 104.497 206.269 104.378 203.294C104.299 200.776 104.366 198.255 104.578 195.745C104.697 193.512 105.192 191.261 104.654 191.013C104.612 191.342 104.574 191.756 104.531 192.08C104.51 192.483 104.443 192.882 104.331 193.27C104.269 193.436 104.131 193.612 104.074 193.341C104.045 193.156 104.045 192.969 104.074 192.784C104.164 191.961 103.75 191.894 103.526 191.832C102.582 191.645 101.629 191.51 100.67 191.427C100.194 191.394 98.5712 191.323 98.357 191.594C98.2192 191.86 98.1489 192.156 98.1523 192.456C98.1 192.903 97.9952 193.232 97.981 193.089C97.9524 192.77 98.0143 191.932 98.0238 191.732C98.0333 191.532 98.0619 191.256 98.0666 191.08C98.0714 190.904 98.0619 190.699 98.0619 190.509Z" fill="#37474F"/>
<path d="M95.0767 205.331C94.9652 206.927 95.3708 208.516 96.2334 209.863C97.2758 211.667 101.274 213.443 103.097 210.858C104.006 209.573 104.249 208.054 104.373 206.502C103.297 204.513 96.7998 203.637 95.0767 205.331Z" fill="#FAFAFA"/>
<path d="M103.026 203.251C103.001 203.256 102.975 203.256 102.95 203.251C102.926 203.251 100.07 202.057 97.2902 202.699C97.2601 202.71 97.2281 202.713 97.1964 202.711C97.1647 202.708 97.134 202.698 97.1061 202.683C97.0783 202.667 97.0539 202.646 97.0347 202.621C97.0155 202.596 97.0017 202.567 96.9944 202.536C96.9871 202.505 96.9863 202.472 96.9921 202.441C96.998 202.41 97.0103 202.38 97.0283 202.354C97.0463 202.328 97.0695 202.305 97.0966 202.289C97.1237 202.272 97.154 202.261 97.1855 202.257C100.127 201.576 103.04 202.785 103.15 202.837C103.204 202.864 103.245 202.911 103.265 202.968C103.285 203.025 103.281 203.088 103.255 203.142C103.232 203.181 103.198 203.213 103.157 203.232C103.116 203.252 103.071 203.258 103.026 203.251Z" fill="#F0F0F0"/>
<path d="M97.4289 200.471C97.3846 200.467 97.3425 200.45 97.3079 200.422C97.2732 200.394 97.2474 200.357 97.2337 200.314C97.2154 200.257 97.22 200.194 97.2466 200.14C97.2732 200.086 97.3198 200.044 97.3765 200.024C100.147 199.072 103.217 200.5 103.331 200.552C103.377 200.585 103.409 200.633 103.423 200.688C103.436 200.743 103.428 200.8 103.402 200.85C103.376 200.9 103.333 200.939 103.281 200.959C103.228 200.98 103.17 200.981 103.117 200.962C103.093 200.962 100.099 199.581 97.5241 200.457C97.4939 200.469 97.4613 200.474 97.4289 200.471Z" fill="#F0F0F0"/>
<path d="M97.5298 198.372C97.4868 198.368 97.4458 198.352 97.4113 198.326C97.3769 198.3 97.3503 198.265 97.3347 198.225C97.3241 198.196 97.3193 198.166 97.3205 198.136C97.3217 198.106 97.329 198.076 97.3418 198.048C97.3547 198.021 97.3729 197.996 97.3953 197.976C97.4178 197.955 97.4441 197.94 97.4727 197.93C100.514 196.84 103.432 198.377 103.537 198.444C103.589 198.475 103.626 198.526 103.64 198.585C103.654 198.644 103.645 198.706 103.613 198.758C103.582 198.81 103.531 198.847 103.472 198.861C103.413 198.875 103.351 198.866 103.299 198.834C103.275 198.834 100.443 197.349 97.6298 198.358C97.5978 198.37 97.5638 198.375 97.5298 198.372Z" fill="#F0F0F0"/>
<path d="M97.6741 196.311C97.6322 196.305 97.5927 196.289 97.5593 196.263C97.5259 196.237 97.4998 196.203 97.4837 196.164C97.473 196.135 97.4679 196.106 97.4689 196.075C97.4698 196.045 97.4766 196.016 97.489 195.988C97.5014 195.961 97.5191 195.936 97.541 195.916C97.563 195.895 97.5888 195.879 97.617 195.868C100.473 194.802 103.605 196.378 103.724 196.444C103.776 196.475 103.815 196.525 103.831 196.584C103.847 196.643 103.839 196.705 103.81 196.759C103.794 196.785 103.774 196.807 103.75 196.826C103.726 196.844 103.699 196.857 103.669 196.864C103.64 196.872 103.61 196.874 103.58 196.869C103.55 196.865 103.521 196.855 103.496 196.84C103.467 196.84 100.425 195.302 97.7835 196.297C97.7485 196.309 97.7112 196.314 97.6741 196.311Z" fill="#EBEBEB"/>
<path d="M104.011 97.6507C101.436 103.991 100.551 107.594 100.27 122.641C99.9891 137.687 100.018 144.204 99.9558 146.017C99.8939 147.831 98.8419 151.072 97.9137 160.012C96.9855 168.951 97.8376 179.409 97.8376 179.409C97.8376 179.409 98.7229 181.032 102.122 181.313C105.273 181.598 106.834 180.413 106.834 180.413C106.834 180.413 111.156 163.01 112.356 157.632C113.555 152.253 117.43 131.571 117.43 131.571L119.491 145.922C119.491 145.922 118.539 150.853 119.491 158.693C120.443 166.533 122.147 174.553 122.147 174.553C123.702 175.097 125.34 175.366 126.988 175.348C128.48 175.371 129.95 174.986 131.238 174.234C131.238 174.234 133.914 150.91 133.914 142.038C133.914 133.165 133.804 110.774 131.005 97.627L104.011 97.6507Z" fill="#455A64"/>
<path d="M113.214 148.568C113.214 148.568 111.858 146.607 108.526 146.188C105.194 145.769 103.466 147.592 103.466 147.592C103.466 147.592 109.649 146.959 113.214 148.568ZM103.09 148.925C107.374 149.777 109.344 149.601 111.306 149.211C111.306 149.211 105.127 148.43 103.09 148.925Z" fill="#9E6767"/>
<path d="M133.885 144.38L133.914 143.428C131.058 143.047 126.474 143.975 125.246 144.68C128.108 144.284 131.003 144.183 133.885 144.38ZM127.283 145.784C129.187 146.298 133.786 146.531 133.786 146.531L133.833 145.627C133.833 145.627 130.558 145.527 127.283 145.784Z" fill="#9E6767"/>
<path d="M98.6693 180.237C98.8192 180.35 98.9784 180.45 99.1453 180.537C98.2742 166.495 100.021 158.431 101.183 153.057C101.297 152.538 101.402 152.048 101.501 151.581C102.382 147.378 102.777 138.944 102.763 132.037C102.763 129.957 102.763 127.81 102.763 125.525C102.763 122.855 102.863 120.089 103.082 117.357C107.98 116.772 109.041 111.935 110.379 105.833C110.56 104.995 110.752 104.134 110.955 103.248L110.522 103.148C110.317 104.034 110.127 104.9 109.941 105.738C108.603 111.854 107.618 116.296 103.12 116.891C103.653 110.703 104.933 104.662 107.98 100.311L107.618 100.054C103.082 106.528 102.382 116.562 102.315 125.52C102.315 127.805 102.315 129.957 102.315 132.037C102.315 138.92 101.935 147.336 101.064 151.491L100.749 152.962C99.5784 158.317 97.841 166.333 98.6693 180.237ZM120.256 114.511L117.443 131.594L119.504 145.946L119.232 132.004L121.136 121.413C121.208 122.465 121.284 123.545 121.355 124.645C121.979 133.727 122.679 144.018 122.207 146.184C120.903 152.119 121.284 155.865 121.979 162.667C122.05 163.358 122.127 164.095 122.203 164.838C122.584 168.679 123.007 172.454 123.293 174.924L123.769 175.029C123.483 172.564 123.05 168.717 122.66 164.795C122.584 164.034 122.512 163.315 122.441 162.625C121.751 155.87 121.37 152.153 122.655 146.279C123.131 144.051 122.469 134.169 121.817 124.616C121.698 122.879 121.584 121.203 121.479 119.604L122.022 116.595C124.164 116.081 128.881 113.592 129.509 110.636C126.196 114.087 120.256 114.511 120.256 114.511Z" fill="#37474F"/>
<path d="M144.581 90.1825C144.224 89.9873 143.553 90.5776 142.677 91.4106C142.458 91.6162 142.288 91.8683 142.179 92.1484C142.07 92.4285 142.026 92.7294 142.049 93.029C142.657 92.9161 143.208 92.5986 143.61 92.1293C144.078 91.5631 144.411 90.8971 144.581 90.1825Z" fill="#263238"/>
<path d="M146.618 97.0034C146.275 96.8939 146.142 96.7464 146.618 96.3037C147.094 95.861 148.664 94.7234 148.664 94.7234L149.06 95.3898C149.06 95.3898 147.213 97.1367 146.618 97.0034Z" fill="black"/>
<path d="M156.724 86.2077C156.5 85.2272 155.424 84.5036 153.482 83.4231L153.43 83.3946L153.159 83.2422C149.936 81.5953 134.081 74.422 131.515 73.4366C129.551 72.6075 127.475 72.0703 125.355 71.842L128.911 84.3561C128.911 84.3561 140.692 88.0451 145.571 89.5445C144.234 91.1296 142.925 92.6623 141.72 93.2144L146.48 97.2462C147.537 95.6135 153.963 92.3386 155.386 90.1062C156.4 88.4687 156.938 87.1645 156.724 86.2077Z" fill="#C5A5A5"/>
<path d="M151.979 84.5087C148.733 84.1612 146.043 86.9459 144.777 88.3977C144.649 88.5452 144.382 88.8736 144.168 89.1212L145.539 89.5448C145.61 89.4639 146.153 88.7451 146.491 88.2929C147.799 86.4063 149.751 85.061 151.979 84.5087Z" fill="#C49797"/>
<path d="M146.067 93.6858C145.53 93.2098 144.216 92.0055 143.378 92.3578C142.064 92.9147 141.445 93.4383 139.47 94.3617C138.042 95.0329 136.305 95.9278 135.929 96.3705C134.977 97.5033 135.3 100.397 135.681 101.606C135.725 101.761 135.802 101.904 135.907 102.026C136.012 102.147 136.142 102.245 136.288 102.312C136.434 102.378 136.593 102.412 136.754 102.411C136.915 102.41 137.073 102.374 137.219 102.306C137.333 102.558 137.652 103.101 138.647 102.896C138.723 103.272 139.299 103.725 140.189 103.544C140.303 103.958 141.103 104.105 141.641 103.858C142.388 103.525 143.164 102.458 143.635 102.054C144.106 101.649 144.33 101.497 144.34 101.245C144.34 100.902 143.973 100.554 143.345 100.612C144.086 100.405 144.749 99.9825 145.249 99.3978C145.633 98.8632 145.953 98.2848 146.201 97.6747C146.393 97.1661 146.686 96.7014 147.062 96.3086C147.757 95.5279 146.72 94.357 146.158 93.8096L146.067 93.6858Z" fill="#C5A5A5"/>
<path d="M143.361 100.626C143.145 100.739 142.942 100.876 142.757 101.035C142.669 101.116 142.589 101.205 142.519 101.302C142.442 101.397 142.39 101.502 142.304 101.607L142.262 101.659L142.204 101.63C141.835 101.486 141.437 101.432 141.043 101.473C141.438 101.314 141.88 101.314 142.276 101.473H142.176C142.303 101.26 142.464 101.069 142.652 100.907C142.867 100.766 143.108 100.671 143.361 100.626Z" fill="#874C4C"/>
<path d="M141.98 102.639C142.028 102.444 142.095 102.278 142.133 102.102C142.179 101.921 142.214 101.739 142.237 101.554C142.329 101.735 142.35 101.944 142.295 102.14C142.247 102.336 142.137 102.512 141.98 102.639Z" fill="#874C4C"/>
<path d="M140.207 103.558C139.975 103.085 139.838 102.57 139.802 102.044C139.748 101.519 139.799 100.989 139.95 100.483C139.917 100.999 139.925 101.516 139.974 102.03C140.009 102.545 140.087 103.056 140.207 103.558Z" fill="#874C4C"/>
<path d="M138.662 102.911C138.444 102.319 138.302 101.701 138.238 101.073C138.161 100.439 138.188 99.7954 138.319 99.1694C138.31 99.7942 138.338 100.419 138.405 101.04C138.462 101.678 138.572 102.292 138.662 102.911Z" fill="#874C4C"/>
<path d="M137.22 102.339C136.653 101.152 136.538 99.798 136.896 98.5315C136.84 99.1649 136.84 99.8021 136.896 100.435C136.949 101.078 137.057 101.715 137.22 102.339Z" fill="#874C4C"/>
<path d="M136.979 97.5225C136.968 97.3597 136.995 97.1965 137.06 97.0465C137.127 96.8996 137.226 96.7694 137.35 96.6657C137.606 96.4856 137.902 96.3712 138.212 96.3325C138.079 96.4134 137.945 96.4848 137.817 96.5562C137.687 96.6226 137.564 96.7024 137.45 96.7942C137.221 96.9823 137.057 97.2368 136.979 97.5225Z" fill="#874C4C"/>
<path d="M138.458 98.0982C138.442 97.9356 138.468 97.7717 138.534 97.6222C138.601 97.474 138.702 97.3435 138.829 97.2414C139.081 97.058 139.376 96.9432 139.686 96.9082L139.291 97.1272C139.163 97.197 139.04 97.2766 138.924 97.3652C138.696 97.5551 138.533 97.8113 138.458 98.0982Z" fill="#874C4C"/>
<path d="M140.243 98.9073C140.227 98.7447 140.253 98.5808 140.319 98.4313C140.386 98.283 140.487 98.1526 140.614 98.0505C140.867 97.869 141.162 97.7544 141.471 97.7173C141.338 97.7982 141.204 97.8696 141.076 97.941C140.946 98.0074 140.823 98.0872 140.709 98.179C140.479 98.3651 140.316 98.6206 140.243 98.9073Z" fill="#874C4C"/>
<path d="M147.698 90.5963L145.698 89.9252C145.471 89.8619 145.232 89.853 145 89.8993C144.769 89.9456 144.551 90.0458 144.366 90.1917L142.78 91.5864C142.711 91.636 142.657 91.7033 142.622 91.7811C142.588 91.859 142.575 91.9446 142.585 92.0291C142.585 92.1291 142.681 92.5051 142.704 92.6146C142.729 92.6957 142.774 92.7689 142.836 92.8266C142.898 92.8844 142.974 92.9245 143.057 92.943L145.056 93.6189C145.283 93.6819 145.522 93.6905 145.754 93.6442C145.985 93.5979 146.203 93.498 146.389 93.3524L147.969 91.9529C148.037 91.9061 148.091 91.8424 148.127 91.7682C148.163 91.6939 148.179 91.6116 148.174 91.5293C148.174 91.4198 148.074 91.0533 148.05 90.9295C148.026 90.8475 147.981 90.7733 147.919 90.7147C147.857 90.6561 147.781 90.6152 147.698 90.5963Z" fill="#37474F"/>
<path d="M142.779 91.5864L144.364 90.1917C144.55 90.0458 144.767 89.9456 144.999 89.8993C145.231 89.853 145.47 89.8619 145.697 89.9252L147.696 90.5963C147.783 90.6064 147.864 90.6437 147.929 90.7027C147.993 90.7617 148.037 90.8395 148.054 90.925C148.072 91.0105 148.062 91.0993 148.026 91.1788C147.99 91.2582 147.929 91.3243 147.854 91.3675L146.268 92.7621C146.083 92.9081 145.865 93.0082 145.634 93.0545C145.402 93.1009 145.163 93.092 144.936 93.0287L142.936 92.3575C142.85 92.3474 142.769 92.3102 142.704 92.2512C142.64 92.1922 142.596 92.1144 142.579 92.0289C142.561 91.9434 142.571 91.8546 142.607 91.7751C142.643 91.6957 142.704 91.6296 142.779 91.5864Z" fill="#455A64"/>
<path d="M145.595 92.8623C145.398 92.9133 145.192 92.9133 144.995 92.8623L142.996 92.1911C142.867 92.1483 142.786 92.0816 142.772 92.0055C142.758 91.9293 142.805 91.8436 142.91 91.7532L144.49 90.3585C144.648 90.2323 144.834 90.1473 145.033 90.111C145.23 90.06 145.436 90.06 145.633 90.111L147.632 90.7822C147.76 90.825 147.841 90.8916 147.856 90.9678C147.87 91.044 147.822 91.1296 147.718 91.2201L146.137 92.6148C145.98 92.7409 145.793 92.826 145.595 92.8623Z" fill="#263238"/>
<path d="M144.715 93.2953H144.682L143.254 92.8193C143.245 92.8166 143.237 92.8123 143.23 92.8065C143.224 92.8007 143.218 92.7936 143.214 92.7856C143.21 92.7776 143.208 92.7689 143.207 92.7599C143.207 92.751 143.208 92.7421 143.211 92.7336C143.216 92.7163 143.228 92.7017 143.244 92.6928C143.26 92.684 143.279 92.6815 143.296 92.686L144.724 93.162C144.733 93.1641 144.742 93.168 144.749 93.1737C144.756 93.1794 144.762 93.1865 144.766 93.1947C144.77 93.2029 144.773 93.2119 144.773 93.2211C144.773 93.2303 144.771 93.2394 144.767 93.2477C144.763 93.2593 144.756 93.2697 144.747 93.278C144.738 93.2863 144.727 93.2922 144.715 93.2953Z" fill="#455A64"/>
<path d="M146.395 92.986C146.694 93.0764 147.347 93.4858 147.627 94.6806C147.908 95.8753 147.28 96.8654 146.599 97.0034C146.842 97.1653 147.418 96.9273 148.127 96.3942L148.717 95.9515C148.952 95.7769 149.141 95.5468 149.265 95.2819C149.39 95.017 149.447 94.7254 149.431 94.433C149.422 94.2531 149.395 94.0746 149.35 93.8999C149.279 93.4454 149.112 93.0113 148.86 92.6264C148.608 92.2415 148.277 91.9146 147.889 91.6675L146.395 92.986Z" fill="#263238"/>
<path d="M100.445 108.561C101.54 103.572 103.206 96.218 103.244 95.1137C103.406 90.6488 102.254 87.3216 101.84 84.5465C100.936 78.4965 103.201 73.4176 104.61 72.2229C104.61 72.2229 106.076 71.8897 107.823 71.4708C108.817 71.2294 109.825 71.0482 110.841 70.9281C113.522 70.5526 116.236 70.4792 118.933 70.7092C119.59 70.7758 122.698 71.3089 122.698 71.3089C123.65 71.5279 125.359 71.8421 125.364 71.8421C127.03 73.3788 128.423 75.1881 129.481 77.1923C131.014 79.9341 131.771 82.2284 131.566 88.1022C131.509 89.8682 131.438 93.0241 131.509 95.5421C131.657 100.935 132.066 103.158 132.751 108.051C126.568 111.859 110.97 113.616 100.445 108.561Z" fill="#263238"/>
<path d="M111.313 67.5912C111.779 67.4761 112.233 67.3167 112.669 67.1152C113.299 66.7906 113.999 66.627 114.707 66.6392C115.578 66.7296 116.292 67.3151 117.12 67.5388C117.587 67.6535 118.073 67.673 118.548 67.5959C118.843 67.5531 119.124 67.4579 119.414 67.3913C119.889 67.2764 120.381 67.249 120.866 67.3103C121.36 67.4223 121.872 67.4223 122.366 67.3103C123.137 67.0438 123.579 66.2155 124.322 65.8823C125.15 65.5015 126.131 65.83 127.026 65.6634C127.427 65.5763 127.805 65.4036 128.133 65.1572C128.462 64.9107 128.734 64.5963 128.93 64.2354C129.313 63.5048 129.463 62.6739 129.358 61.8554C129.222 61.3035 129.222 60.727 129.358 60.1751C129.533 59.8312 129.768 59.5216 130.053 59.2612C130.572 58.69 131.005 57.9046 130.762 57.1715C130.553 56.5289 129.863 56.0815 129.81 55.4056C129.809 55.2502 129.843 55.0966 129.909 54.9558C129.975 54.8151 130.071 54.6908 130.191 54.5919C130.311 54.493 130.451 54.4221 130.602 54.3841C130.753 54.3462 130.91 54.3423 131.062 54.3727C131.21 54.4207 131.345 54.5003 131.458 54.606C131.572 54.7117 131.661 54.8409 131.719 54.9846C131.778 55.1282 131.804 55.2829 131.797 55.4379C131.789 55.5928 131.748 55.7442 131.676 55.8816C132.005 55.6731 132.283 55.3941 132.491 55.0648C132.698 54.7354 132.83 54.3641 132.876 53.9776C132.826 53.31 132.514 52.6891 132.009 52.2497C131.533 51.7737 131 51.3881 130.581 50.8741C130.359 50.593 130.197 50.2689 130.105 49.9221C130.062 49.7528 130.044 49.5778 130.053 49.4032C130.053 49.0938 130.196 48.7892 130.243 48.4798C130.327 47.8438 130.181 47.199 129.832 46.6608C129.483 46.1227 128.954 45.7263 128.339 45.5429C127.673 45.3667 126.873 45.4143 126.435 44.8907C126.107 44.5099 126.097 43.9387 125.912 43.4913C125.436 42.3061 123.813 41.9491 122.618 42.4155C122.028 42.644 121.433 43.0343 120.819 42.8915C120.404 42.7389 120.03 42.4911 119.729 42.168C119.17 41.7019 118.522 41.3552 117.825 41.1494C117.477 41.0456 117.12 40.977 116.758 40.9447C116.577 40.9447 116.397 40.9447 116.216 40.9447C116.078 40.9596 115.94 40.9676 115.802 40.9685C115.685 40.9488 115.567 40.936 115.449 40.9304C115.3 40.9319 115.15 40.943 115.002 40.9637C114.414 41.0421 113.847 41.238 113.336 41.5397C112.92 41.7821 112.55 42.0945 112.241 42.4631C112.034 42.7472 111.803 43.0132 111.551 43.2581C110.87 43.834 109.899 43.8245 109.014 43.934C107.989 44.0383 107.01 44.4165 106.182 45.0288C105.775 45.3408 105.437 45.7345 105.191 46.1845C104.945 46.6345 104.796 47.131 104.754 47.642C104.796 48.0994 104.739 48.5604 104.587 48.9939C104.397 49.2948 104.124 49.5344 103.802 49.6841C103.055 50.0233 102.327 50.4031 101.622 50.8217C101.271 51.0363 100.98 51.3369 100.778 51.6951C100.575 52.0532 100.468 52.4571 100.465 52.8685C100.522 53.5587 100.998 54.1299 101.417 54.6963C101.836 55.2628 102.183 55.9625 101.974 56.6241C101.781 57.0192 101.551 57.3953 101.288 57.7475C101.047 58.2342 101.007 58.7962 101.177 59.3121C101.348 59.8279 101.714 60.2559 102.197 60.5035C102.812 60.7891 103.683 60.8653 103.859 61.5174C103.884 61.894 103.83 62.2717 103.702 62.6265C103.511 63.7451 104.587 64.7685 105.715 64.9208C106.348 65.0113 107.062 64.9208 107.572 65.3064C108.005 65.6396 108.143 66.2298 108.447 66.6868C108.754 67.1382 109.22 67.4576 109.752 67.5817C110.009 67.6435 110.28 67.6055 110.532 67.6721C110.795 67.7012 111.061 67.6736 111.313 67.5912Z" fill="#263238"/>
<path d="M111.133 69.081C111.133 68.0909 111.009 63.1167 111.009 63.1167C110.966 63.488 109.158 64.4971 107.549 62.5789C105.94 60.6606 105.835 58.6185 106.806 57.3429C107.877 55.9149 110.676 55.9482 110.943 58.371C112.332 58.3187 113.004 57.7189 112.451 55.4293C112.575 54.0965 113.879 53.5253 114.251 51.3881C114.375 50.5743 114.772 49.827 115.378 49.2697C115.984 48.7123 116.761 48.3783 117.583 48.3227C118.241 48.2707 118.902 48.3659 119.519 48.6013C120.136 48.8368 120.692 49.2066 121.148 49.684C121.314 49.3589 121.551 49.0749 121.841 48.8526C122.131 48.6303 122.466 48.4753 122.824 48.3988C123.727 48.2784 124.643 48.5066 125.385 49.0371C126.127 49.5676 126.639 50.3605 126.817 51.2548C127.304 53.5505 127.509 55.8971 127.426 58.2425C127.231 63.5213 125.813 66.0679 124.123 66.9533C122.985 67.5435 121.962 67.6816 119.987 67.515L120.072 69.1715C120.11 70.0045 120.034 70.5995 120.843 70.8898C121.381 71.0707 122.666 71.3182 122.666 71.3182C122.666 71.3182 124.547 74.5645 119.368 74.8549C111.114 75.3309 107.806 71.4801 107.806 71.4801L109.634 70.9184C110.981 70.49 111.123 70.0759 111.133 69.081Z" fill="#C5A5A5"/>
<path d="M121.133 61.7506C120.998 61.5763 120.812 61.4495 120.6 61.3889C120.411 61.3329 120.216 61.2978 120.019 61.2842C119.828 61.269 119.636 61.2802 119.448 61.3175C119.343 61.3381 119.239 61.3668 119.138 61.4032C119.054 61.4422 118.975 61.4935 118.905 61.5555C118.862 61.5888 118.801 61.7744 118.905 61.7744C119.005 61.784 119.105 61.784 119.205 61.7744L119.467 61.7506C119.652 61.7412 119.838 61.7412 120.024 61.7506C120.205 61.7611 120.384 61.793 120.557 61.8458C120.633 61.8696 120.709 61.8792 120.785 61.8982C120.862 61.9172 120.871 61.922 120.914 61.9268C120.969 61.9315 121.025 61.9315 121.081 61.9268C121.147 61.9172 121.166 61.7935 121.133 61.7506Z" fill="#874C4C"/>
<path opacity="0.2" d="M121.133 61.7506C120.998 61.5763 120.812 61.4495 120.6 61.3889C120.411 61.3329 120.216 61.2978 120.019 61.2842C119.828 61.269 119.636 61.2802 119.448 61.3175C119.343 61.3381 119.239 61.3668 119.138 61.4032C119.054 61.4422 118.975 61.4935 118.905 61.5555C118.862 61.5888 118.801 61.7744 118.905 61.7744C119.005 61.784 119.105 61.784 119.205 61.7744L119.467 61.7506C119.652 61.7412 119.838 61.7412 120.024 61.7506C120.205 61.7611 120.384 61.793 120.557 61.8458C120.633 61.8696 120.709 61.8792 120.785 61.8982C120.862 61.9172 120.871 61.922 120.914 61.9268C120.969 61.9315 121.025 61.9315 121.081 61.9268C121.147 61.9172 121.166 61.7935 121.133 61.7506Z" fill="black"/>
<path d="M125.892 53.5636L123.816 52.7353C123.863 52.5959 123.938 52.4675 124.037 52.3582C124.135 52.2489 124.255 52.161 124.389 52.0999C124.523 52.0388 124.668 52.0058 124.815 52.0029C124.962 52 125.108 52.0274 125.244 52.0832C125.521 52.2005 125.742 52.4193 125.863 52.6946C125.983 52.9699 125.993 53.2808 125.892 53.5636Z" fill="#263238"/>
<path d="M118.805 52.883L116.592 52.407C116.553 52.5493 116.545 52.6979 116.566 52.8437C116.587 52.9895 116.638 53.1295 116.715 53.2551C116.792 53.3807 116.894 53.4893 117.014 53.5742C117.135 53.6592 117.271 53.7188 117.415 53.7493C117.714 53.8115 118.025 53.7562 118.284 53.5948C118.543 53.4335 118.729 53.1785 118.805 52.883Z" fill="#263238"/>
<path d="M123.632 55.5625C123.613 55.8106 123.692 56.0561 123.852 56.2465C124.012 56.4369 124.241 56.557 124.488 56.5812C124.609 56.595 124.731 56.5845 124.847 56.5503C124.963 56.516 125.071 56.4588 125.165 56.382C125.259 56.3052 125.336 56.2104 125.392 56.1031C125.448 55.9959 125.483 55.8784 125.493 55.7577C125.511 55.5096 125.432 55.2641 125.272 55.0737C125.112 54.8834 124.884 54.7632 124.636 54.739C124.516 54.7252 124.394 54.7358 124.277 54.77C124.161 54.8042 124.053 54.8614 123.959 54.9382C123.866 55.015 123.788 55.1098 123.732 55.2171C123.676 55.3243 123.642 55.4418 123.632 55.5625Z" fill="#263238"/>
<path d="M116.866 55.6912C116.847 55.9392 116.927 56.1847 117.087 56.3751C117.247 56.5655 117.475 56.6856 117.723 56.7098C117.843 56.7243 117.965 56.7144 118.081 56.6808C118.197 56.6471 118.305 56.5904 118.399 56.514C118.493 56.4375 118.57 56.343 118.627 56.236C118.683 56.1289 118.717 56.0116 118.727 55.8911C118.746 55.643 118.666 55.3975 118.506 55.2071C118.346 55.0168 118.118 54.8966 117.87 54.8724C117.75 54.858 117.628 54.8678 117.512 54.9015C117.396 54.9351 117.288 54.9919 117.194 55.0683C117.1 55.1447 117.023 55.2393 116.967 55.3463C116.91 55.4533 116.876 55.5706 116.866 55.6912Z" fill="#263238"/>
<path d="M124.465 58.8089L121.419 59.9228L120.609 54.6296C121.78 54.6582 123.284 56.5051 124.465 58.8089Z" fill="#BF8D8D"/>
<path d="M119.988 67.5056C116.442 67.1391 113.048 65.9729 112.258 64.3545C112.4 65.3702 112.908 66.2993 113.686 66.9677C116.066 68.9479 120.064 68.7575 120.064 68.7575L119.988 67.5056Z" fill="#BD8A8A"/>
<path d="M98.8593 116.886C97.3647 117.309 95.4511 115.458 94.9275 114.806C94.4039 114.154 95.0751 112.621 95.4035 111.326C95.732 110.031 95.4036 107.837 97.0077 108.47C98.6118 109.103 101.972 113.392 98.8593 116.886Z" fill="#C49797"/>
<path d="M104.597 72.2227C100.437 72.8415 98.5094 73.8363 96.2198 78.4392C93.5542 83.799 89.2417 91.2531 88.5753 93.5808C87.9517 95.7466 86.7141 97.2936 89.0846 100.583C91.2504 103.596 98.0667 111.488 99.0806 112.645C99.966 113.668 99.4757 116.605 96.4293 116.167C96.4293 116.167 98.7474 118.219 100.018 117.99C101.118 117.795 102.846 116.833 104.431 113.501C105.43 111.397 104.593 109.75 103.074 107.409C101.256 104.614 97.3289 96.8223 97.3289 96.8223L104.355 84.3559C104.355 84.3559 108.139 75.9212 104.597 72.2227Z" fill="#C5A5A5"/>
<path d="M146.767 195.16C146.718 194.489 146.415 193.862 145.92 193.408C145.49 192.931 144.904 192.622 144.268 192.537C144.159 192.537 144.101 192.694 144.097 192.78C144.089 192.841 144.097 192.902 144.12 192.959C144.144 193.016 144.181 193.066 144.23 193.103C144.7 193.349 145.14 193.649 145.539 193.998C145.7 194.169 145.836 194.361 145.944 194.569C145.972 194.622 145.997 194.676 146.02 194.731V194.76L146.058 194.86C146.101 194.984 146.158 195.107 146.191 195.236C146.231 195.47 146.252 195.707 146.253 195.945C146.252 196.023 146.27 196.1 146.305 196.169C146.429 196.35 146.6 196.021 146.648 195.897C146.737 195.662 146.778 195.411 146.767 195.16Z" fill="#FAFAFA"/>
<path d="M147.721 192.194C147.257 191.648 146.683 191.205 146.036 190.895C145.387 190.523 144.618 190.42 143.894 190.609C143.713 190.676 143.732 191.085 143.894 191.128C144.552 191.27 145.198 191.462 145.827 191.704C146.322 191.928 146.766 192.252 147.131 192.656C148.04 193.66 148.326 195.06 148.331 196.378C148.331 196.473 148.431 196.464 148.464 196.378C149.178 195.007 148.664 193.322 147.721 192.194Z" fill="#FAFAFA"/>
<path d="M50.5038 55.8587C53.1028 61.1328 59.2146 65.6024 69.9056 65.6119C74.6656 65.6119 78.5164 64.7171 81.5581 63.2653C83.6001 65.7786 87.7461 66.7115 90.7687 65.5406C90.8575 65.5055 90.9336 65.4445 90.9873 65.3655C91.041 65.2866 91.0697 65.1933 91.0697 65.0979C91.0697 65.0024 91.041 64.9091 90.9873 64.8302C90.9336 64.7513 90.8575 64.6903 90.7687 64.6552C87.7175 63.3795 86.8369 61.2137 86.5989 59.6858C87.6922 58.5644 88.6044 57.2797 89.3026 55.8778C90.7046 53.1094 91.3403 50.0162 91.1436 46.9193C90.9469 43.8224 89.925 40.8345 88.184 38.2658C84.7377 33.006 77.1598 29.6978 69.9008 29.6978C62.6418 29.6978 55.0639 33.0012 51.6177 38.2658C49.8819 40.8332 48.8634 43.8177 48.6676 46.9107C48.4718 50.0037 49.1057 53.0928 50.5038 55.8587Z" fill="white"/>
<path d="M87.9607 66.2166C85.5093 66.2166 82.9817 65.2122 81.5109 63.4843C78.2598 65.0075 74.3709 65.7834 69.925 65.7834H69.8917C57.1063 65.7834 52.1607 59.5954 50.3471 55.9397C48.9343 53.1445 48.294 50.0226 48.4923 46.8969C48.6907 43.7713 49.7205 40.7553 51.4753 38.1611C54.8644 32.987 62.2709 29.5122 69.906 29.5122C77.541 29.5122 84.9476 32.9822 88.3367 38.1564C90.0975 40.7483 91.1329 43.7642 91.3355 46.8911C91.538 50.0181 90.9003 53.1423 89.4886 55.9397C88.7933 57.3362 87.8914 58.62 86.8135 59.7477C87.0753 61.2662 87.9987 63.2939 90.8643 64.5077C90.9851 64.5577 91.088 64.6431 91.1594 64.7527C91.2308 64.8623 91.2673 64.991 91.2641 65.1218C91.266 65.2512 91.2277 65.3779 91.1543 65.4846C91.081 65.5912 90.9763 65.6723 90.8547 65.7168C89.9295 66.0617 88.948 66.2312 87.9607 66.2166ZM81.6061 63.0464L81.6917 63.1559C83.6433 65.5359 87.6846 66.5498 90.7072 65.374C90.7622 65.3539 90.8094 65.3167 90.8419 65.2679C90.8745 65.2192 90.8906 65.1613 90.8881 65.1027C90.8915 65.0422 90.8759 64.9821 90.8435 64.9309C90.811 64.8797 90.7634 64.8399 90.7072 64.8171C87.637 63.5319 86.685 61.3328 86.4232 59.7144V59.6287L86.4851 59.5668C87.5696 58.4446 88.4722 57.1597 89.1602 55.7588C90.5427 53.022 91.1696 49.9658 90.9763 46.9057C90.783 43.8457 89.7765 40.8926 88.0606 38.3515C84.7857 33.3583 77.3316 29.8692 69.925 29.8692C62.5185 29.8692 55.0643 33.3583 51.7894 38.3515C50.0676 40.8944 49.0569 43.8513 48.8619 46.9161C48.6669 49.9809 49.2947 53.0421 50.6803 55.7826C52.4558 59.386 57.3158 65.4264 69.925 65.4359C74.3756 65.4359 78.2693 64.6505 81.5013 63.1083L81.6061 63.0464Z" fill="#455A64"/>
<path d="M74.3298 51.2322C75.596 52.6269 75.7102 54.3215 75.7102 56.354H64.0625C64.0625 54.3215 64.1767 52.6269 65.4429 51.2322C66.7091 49.8375 67.7277 49.3568 68.2465 48.8522C68.4429 48.722 68.604 48.5451 68.7154 48.3375C68.8269 48.1299 68.8852 47.8979 68.8852 47.6622C68.8852 47.4266 68.8269 47.1946 68.7154 46.9869C68.604 46.7793 68.4429 46.6025 68.2465 46.4722C67.7277 45.9677 66.7043 45.4821 65.4429 44.0922C64.1815 42.7023 64.0625 41.003 64.0625 38.9705H75.7102C75.7102 41.003 75.596 42.7023 74.3298 44.0922C73.0637 45.4821 72.045 45.9677 71.5262 46.4722C71.3298 46.6025 71.1687 46.7793 71.0573 46.9869C70.9459 47.1946 70.8875 47.4266 70.8875 47.6622C70.8875 47.8979 70.9459 48.1299 71.0573 48.3375C71.1687 48.5451 71.3298 48.722 71.5262 48.8522C71.807 49.1235 72.2402 49.3949 72.7733 49.8042C73.3344 50.232 73.8554 50.71 74.3298 51.2322Z" fill="#0D5372"/>
<path opacity="0.6" d="M74.3298 51.2322C75.596 52.6269 75.7102 54.3215 75.7102 56.354H64.0625C64.0625 54.3215 64.1767 52.6269 65.4429 51.2322C66.7091 49.8375 67.7277 49.3568 68.2465 48.8522C68.4429 48.722 68.604 48.5451 68.7154 48.3375C68.8269 48.1299 68.8852 47.8979 68.8852 47.6622C68.8852 47.4266 68.8269 47.1946 68.7154 46.9869C68.604 46.7793 68.4429 46.6025 68.2465 46.4722C67.7277 45.9677 66.7043 45.4821 65.4429 44.0922C64.1815 42.7023 64.0625 41.003 64.0625 38.9705H75.7102C75.7102 41.003 75.596 42.7023 74.3298 44.0922C73.0637 45.4821 72.045 45.9677 71.5262 46.4722C71.3298 46.6025 71.1687 46.7793 71.0573 46.9869C70.9459 47.1946 70.8875 47.4266 70.8875 47.6622C70.8875 47.8979 70.9459 48.1299 71.0573 48.3375C71.1687 48.5451 71.3298 48.722 71.5262 48.8522C71.807 49.1235 72.2402 49.3949 72.7733 49.8042C73.3344 50.232 73.8554 50.71 74.3298 51.2322Z" fill="white"/>
<path opacity="0.5" d="M64.3963 56.1156C64.3648 56.1156 64.3345 56.1031 64.3122 56.0808C64.2899 56.0585 64.2773 56.0282 64.2773 55.9966C64.2773 54.2878 64.4011 52.6646 65.6054 51.3128C66.2248 50.6348 66.9195 50.0295 67.676 49.5088C67.9316 49.3371 68.1749 49.1478 68.4043 48.9423C68.6173 48.7942 68.7914 48.5966 68.9116 48.3666C69.0318 48.1366 69.0946 47.8809 69.0946 47.6214C69.0946 47.3619 69.0318 47.1062 68.9116 46.8762C68.7914 46.6462 68.6173 46.4487 68.4043 46.3005C68.1757 46.0961 67.934 45.9069 67.6807 45.7341C66.9229 45.2114 66.2267 44.6046 65.6054 43.9253C64.4011 42.5972 64.2916 40.955 64.2773 39.2462C64.2773 39.2146 64.2899 39.1844 64.3122 39.1621C64.3345 39.1397 64.3648 39.1272 64.3963 39.1272C64.4266 39.1272 64.4557 39.1392 64.4771 39.1607C64.4985 39.1821 64.5106 39.2111 64.5106 39.2414C64.5106 40.9074 64.6296 42.502 65.7767 43.773C66.3865 44.4372 67.07 45.0297 67.814 45.5389C68.0714 45.7206 68.3163 45.9194 68.5471 46.1339C68.7812 46.3049 68.9716 46.5288 69.1029 46.7872C69.2341 47.0457 69.3026 47.3315 69.3026 47.6214C69.3026 47.9113 69.2341 48.1971 69.1029 48.4556C68.9716 48.7141 68.7812 48.9379 68.5471 49.1089C68.3103 49.3227 68.059 49.52 67.795 49.6992C67.0499 50.2089 66.3662 50.803 65.7577 51.4699C64.6105 52.736 64.5058 54.3259 64.4915 55.9966C64.4921 56.0245 64.4829 56.0516 64.4655 56.0734C64.4481 56.0951 64.4236 56.1101 64.3963 56.1156Z" fill="white"/>
<path d="M73.8193 51.6699C74.7713 52.7124 74.9712 54.0499 75.0045 55.5874H64.8086C64.8419 54.0261 65.0085 52.7029 65.9938 51.6699C66.9792 50.637 68.193 50.1848 69.9066 50.1848C70.6247 50.1602 71.3405 50.2789 72.0123 50.5339C72.6841 50.7888 73.2983 51.175 73.8193 51.6699Z" fill="#FAFAFA"/>
<path d="M74.9597 40.6027C74.924 41.6923 74.5234 42.7383 73.8221 43.5729C73.2268 44.2227 72.5592 44.8024 71.8324 45.3008C71.5566 45.4904 71.2942 45.6988 71.047 45.9244C70.7973 46.1338 70.5932 46.3922 70.4475 46.6837C70.3017 46.9752 70.2174 47.2935 70.1997 47.6189C70.1997 48.1901 70.1045 48.3377 69.9094 48.3377C69.7142 48.3377 69.619 48.2044 69.619 47.6189C69.6013 47.2935 69.517 46.9752 69.3713 46.6837C69.2255 46.3922 69.0215 46.1338 68.7717 45.9244C68.5262 45.6988 68.2654 45.4904 67.9911 45.3008C67.2618 44.8038 66.5925 44.224 65.9967 43.5729C65.778 43.3317 65.5894 43.0647 65.435 42.778C65.4245 42.7571 65.4202 42.7335 65.4225 42.7102C65.4248 42.6869 65.4338 42.6647 65.4482 42.6463C65.4627 42.6278 65.4821 42.6138 65.5042 42.606C65.5263 42.5981 65.5502 42.5967 65.573 42.6019C66.4921 42.821 67.4378 42.9076 68.3814 42.8589C70.2569 42.7447 71.0994 42.4305 72.2751 41.4309C72.9796 40.8407 73.5127 40.0029 73.9839 39.8221C74.1011 39.7574 74.2348 39.7289 74.3682 39.7402C74.5015 39.7516 74.6285 39.8023 74.733 39.8859C74.8375 39.9695 74.9149 40.0823 74.9552 40.2099C74.9956 40.3375 74.9972 40.4742 74.9597 40.6027Z" fill="#FAFAFA"/>
<path d="M69.9022 49.5182C70.0941 49.5182 70.2496 49.3626 70.2496 49.1707C70.2496 48.9788 70.0941 48.8232 69.9022 48.8232C69.7103 48.8232 69.5547 48.9788 69.5547 49.1707C69.5547 49.3626 69.7103 49.5182 69.9022 49.5182Z" fill="#FAFAFA"/>
<path opacity="0.3" d="M72.7756 49.804C73.3367 50.2318 73.8576 50.7097 74.3321 51.232C75.5983 52.6266 75.7125 54.3212 75.7125 56.3537H65.4023C66.9589 56.3537 71.3143 55.6254 72.8708 54.1022C74.5177 52.4791 73.7085 51.1034 72.7756 49.804Z" fill="#0D5372"/>
<path opacity="0.3" d="M75.711 38.9844C75.711 41.0169 75.5968 42.7162 74.3306 44.1061C73.0645 45.4961 72.0458 45.9816 71.527 46.4861C71.3306 46.6164 71.1695 46.7932 71.0581 47.0009C70.9466 47.2085 70.8883 47.4405 70.8883 47.6761C70.8883 47.9118 70.9466 48.1438 71.0581 48.3514C71.1695 48.559 71.3306 48.7359 71.527 48.8661C69.8181 47.8285 70.099 46.786 70.4131 46.0911C70.7273 45.3961 72.8598 44.0823 72.7408 42.1593C72.6218 40.2363 69.6277 38.9987 66.7812 38.9987L75.711 38.9844Z" fill="#0D5372"/>
<path d="M76.7604 37.4233C76.7604 37.6973 76.6516 37.96 76.4579 38.1537C76.2642 38.3474 76.0015 38.4563 75.7275 38.4563H64.0798C63.8058 38.4563 63.5431 38.3474 63.3494 38.1537C63.1557 37.96 63.0469 37.6973 63.0469 37.4233H76.7604Z" fill="#0D5372"/>
<path opacity="0.2" d="M72.048 37.4233C72.0468 37.6977 71.9369 37.9604 71.7424 38.154C71.548 38.3476 71.2847 38.4563 71.0104 38.4563H64.0798C63.8058 38.4563 63.5431 38.3474 63.3494 38.1537C63.1557 37.96 63.0469 37.6973 63.0469 37.4233H72.048Z" fill="white"/>
<path d="M77.5854 36.1429V36.5427C77.5854 36.7763 77.4926 37.0002 77.3275 37.1654C77.1623 37.3305 76.9383 37.4233 76.7048 37.4233H63.115C62.8814 37.4233 62.6574 37.3305 62.4923 37.1654C62.3272 37.0002 62.2344 36.7763 62.2344 36.5427V36.1429C62.2356 36.0945 62.2557 36.0485 62.2904 36.0147C62.3251 35.9809 62.3716 35.962 62.42 35.962H77.3902C77.4151 35.96 77.4402 35.9632 77.4638 35.9714C77.4874 35.9796 77.5091 35.9926 77.5274 36.0096C77.5458 36.0266 77.5604 36.0473 77.5704 36.0702C77.5803 36.0931 77.5855 36.1179 77.5854 36.1429Z" fill="#0D5372"/>
<path opacity="0.15" d="M77.5633 36.1428V36.5426C77.5633 36.7762 77.4705 37.0002 77.3054 37.1653C77.1402 37.3305 76.9162 37.4232 76.6827 37.4232H63.1072C62.8736 37.4232 62.6496 37.3305 62.4845 37.1653C62.3193 37.0002 62.2266 36.7762 62.2266 36.5426V36.1428C62.2266 36.0948 62.2456 36.0488 62.2795 36.0149C62.3135 35.981 62.3595 35.9619 62.4074 35.9619H77.3776C77.4261 35.9619 77.4726 35.9808 77.5073 36.0146C77.5419 36.0484 77.562 36.0944 77.5633 36.1428Z" fill="black"/>
<path d="M73.6679 36.1428V36.5426C73.6679 36.7762 73.5751 37.0002 73.41 37.1653C73.2448 37.3305 73.0208 37.4232 72.7873 37.4232H63.115C62.8814 37.4232 62.6574 37.3305 62.4923 37.1653C62.3272 37.0002 62.2344 36.7762 62.2344 36.5426V36.1428C62.2356 36.0944 62.2557 36.0484 62.2904 36.0146C62.3251 35.9808 62.3716 35.9619 62.42 35.9619H73.487C73.535 35.9619 73.581 35.981 73.6149 36.0149C73.6488 36.0488 73.6679 36.0948 73.6679 36.1428Z" fill="#0D5372"/>
<path opacity="0.2" d="M64.5728 37.4232C64.4021 37.218 64.3086 36.9595 64.3086 36.6926C64.3086 36.4256 64.4021 36.1671 64.5728 35.9619H67.6906C67.864 36.1659 67.9592 36.4249 67.9592 36.6926C67.9592 36.9603 67.864 37.2193 67.6906 37.4232H64.5728Z" fill="white"/>
<path opacity="0.2" d="M65.0987 38.4563C64.9841 38.3085 64.9219 38.1268 64.9219 37.9398C64.9219 37.7528 64.9841 37.5711 65.0987 37.4233H67.1646C67.2792 37.5711 67.3414 37.7528 67.3414 37.9398C67.3414 38.1268 67.2792 38.3085 67.1646 38.4563H65.0987Z" fill="white"/>
<path d="M63.0469 57.8149C63.0469 57.541 63.1557 57.2782 63.3494 57.0845C63.5431 56.8908 63.8058 56.782 64.0798 56.782H75.7275C76.0015 56.782 76.2642 56.8908 76.4579 57.0845C76.6516 57.2782 76.7604 57.541 76.7604 57.8149H63.0469Z" fill="#0D5372"/>
<path opacity="0.2" d="M67.7656 57.8149C67.7656 57.541 67.8744 57.2782 68.0682 57.0845C68.2619 56.8908 68.5246 56.782 68.7985 56.782H75.7339C76.0078 56.782 76.2705 56.8908 76.4642 57.0845C76.658 57.2782 76.7668 57.541 76.7668 57.8149H67.7656Z" fill="white"/>
<path d="M62.2344 59.0954V58.6955C62.2344 58.462 62.3272 58.238 62.4923 58.0729C62.6574 57.9077 62.8814 57.8149 63.115 57.8149H76.6905C76.924 57.8149 77.148 57.9077 77.3132 58.0729C77.4783 58.238 77.5711 58.462 77.5711 58.6955V59.0954C77.5717 59.1195 77.5675 59.1436 77.5587 59.1661C77.5499 59.1886 77.5367 59.2091 77.5198 59.2264C77.503 59.2437 77.4828 59.2574 77.4606 59.2668C77.4383 59.2762 77.4144 59.281 77.3902 59.281H62.42C62.3708 59.281 62.3236 59.2615 62.2887 59.2266C62.2539 59.1918 62.2344 59.1446 62.2344 59.0954Z" fill="#0D5372"/>
<path opacity="0.15" d="M62.2344 59.0954V58.6955C62.2344 58.462 62.3272 58.238 62.4923 58.0729C62.6574 57.9077 62.8814 57.8149 63.115 57.8149H76.6905C76.924 57.8149 77.148 57.9077 77.3132 58.0729C77.4783 58.238 77.5711 58.462 77.5711 58.6955V59.0954C77.5717 59.1195 77.5675 59.1436 77.5587 59.1661C77.5499 59.1886 77.5367 59.2091 77.5198 59.2264C77.503 59.2437 77.4828 59.2574 77.4606 59.2668C77.4383 59.2762 77.4144 59.281 77.3902 59.281H62.42C62.3708 59.281 62.3236 59.2615 62.2887 59.2266C62.2539 59.1918 62.2344 59.1446 62.2344 59.0954Z" fill="black"/>
<path d="M66.1642 59.0954V58.6955C66.1642 58.462 66.2569 58.238 66.4221 58.0729C66.5872 57.9077 66.8112 57.8149 67.0448 57.8149H76.7171C76.9506 57.8149 77.1746 57.9077 77.3398 58.0729C77.5049 58.238 77.5977 58.462 77.5977 58.6955V59.0954C77.5983 59.1195 77.5941 59.1436 77.5853 59.1661C77.5765 59.1886 77.5633 59.2091 77.5464 59.2264C77.5295 59.2437 77.5094 59.2574 77.4871 59.2668C77.4649 59.2762 77.441 59.281 77.4168 59.281H66.326C66.2806 59.2762 66.2386 59.2544 66.2086 59.22C66.1786 59.1856 66.1627 59.141 66.1642 59.0954Z" fill="#0D5372"/>
<path opacity="0.2" d="M75.2419 57.8149C75.4148 58.0201 75.5096 58.2797 75.5096 58.548C75.5096 58.8162 75.4148 59.0759 75.2419 59.281H72.1241C71.953 59.0751 71.8594 58.8157 71.8594 58.548C71.8594 58.2802 71.953 58.0209 72.1241 57.8149H75.2419Z" fill="white"/>
<path opacity="0.2" d="M74.7345 56.782C74.8491 56.9297 74.9113 57.1114 74.9113 57.2984C74.9113 57.4855 74.8491 57.6671 74.7345 57.8149H72.6639C72.55 57.6668 72.4883 57.4852 72.4883 57.2984C72.4883 57.1116 72.55 56.9301 72.6639 56.782H74.7345Z" fill="white"/>
</svg>
