<svg width="200" height="190" viewBox="0 0 200 190" fill="none" xmlns="http://www.w3.org/2000/svg">
<path d="M195.941 145.236L125.212 15.0258C119.874 6.03906 110.445 0.671875 99.9924 0.671875C89.5392 0.671875 80.1111 6.03906 74.7728 15.0258C74.7326 15.0945 74.6986 15.1633 74.6584 15.232L4.16462 145.03C-1.28812 154.206 -1.39124 165.226 3.88376 174.505C9.17087 183.79 18.6959 189.329 29.3783 189.329H170.216C180.898 189.329 190.815 183.79 196.101 174.505C201.376 165.227 201.274 154.206 195.941 145.236ZM88.2619 60.2926C88.2619 53.8137 93.5138 48.5621 99.9924 48.5621C106.471 48.5621 111.723 53.8141 111.723 60.2926V107.215C111.723 113.693 106.471 118.945 99.9924 118.945C93.5138 118.945 88.2619 113.693 88.2619 107.215V60.2926ZM99.9924 165.868C90.2896 165.868 82.3963 157.975 82.3963 148.272C82.3963 138.569 90.2892 130.676 99.9924 130.676C109.695 130.676 117.588 138.569 117.588 148.272C117.588 157.975 109.695 165.868 99.9924 165.868Z" fill="#7595A3"/>
</svg>
