<svg width="30" height="30" viewBox="0 0 30 30" fill="none" xmlns="http://www.w3.org/2000/svg">
<path d="M1.25 19.0625C0.732233 19.0625 0.3125 19.4822 0.3125 20C0.3125 20.5178 0.732233 20.9375 1.25 20.9375H5C5.51777 20.9375 5.9375 20.5178 5.9375 20C5.9375 19.4822 5.51777 19.0625 5 19.0625H1.25Z" fill="#009FE5"/>
<path d="M1.25 22.8125C0.732233 22.8125 0.3125 23.2322 0.3125 23.75C0.3125 24.2678 0.732233 24.6875 1.25 24.6875H8.75C9.26777 24.6875 9.6875 24.2678 9.6875 23.75C9.6875 23.2322 9.26777 22.8125 8.75 22.8125H1.25Z" fill="#009FE5"/>
<path d="M3.88606 6.36259L3.75 6.25C4.1355 5.71941 4.54575 5.32914 5.07634 4.94364C6.71925 3.75 9.06283 3.75 13.75 3.75H16.25C20.9372 3.75 23.2808 3.75 24.9237 4.94364C25.4543 5.32914 25.8321 5.67665 26.2176 6.20724L26.0606 6.36338L23.1757 9.24826C21.0737 11.3503 19.5624 12.8588 18.2589 13.8533C16.977 14.8314 16.0068 15.2237 14.9998 15.2237C13.9928 15.2237 13.0226 14.8314 11.7408 13.8533C10.4373 12.8588 8.92598 11.3503 6.82391 9.24826L4.39484 6.81919L3.88606 6.36259Z" fill="#009FE5"/>
<path d="M2.5 15C2.5 11.7001 2.5 9.56182 2.91653 8.01184L3.10482 8.18082L5.5488 10.6248C7.58914 12.6652 9.18811 14.2641 10.6034 15.344C12.0521 16.4493 13.418 17.0987 14.9998 17.0987C16.5816 17.0987 17.9476 16.4493 19.3962 15.344C20.8115 14.2642 22.4105 12.6652 24.4508 10.6248L27.0793 7.99636C27.5 9.54758 27.5 11.6891 27.5 15C27.5 19.6872 27.5 22.0307 26.3064 23.6737C25.9209 24.2043 25.4543 24.6709 24.9237 25.0564C23.2808 26.25 20.9372 26.25 16.25 26.25H13.75C11.9645 26.25 10.5191 26.25 9.32301 26.184C10.4276 25.925 11.25 24.9335 11.25 23.75C11.25 22.3693 10.1307 21.25 8.75 21.25H7.16554C7.37826 20.8823 7.5 20.4554 7.5 20C7.5 18.6193 6.38071 17.5 5 17.5H2.50901C2.5 16.7486 2.5 15.9194 2.5 15Z" fill="#009FE5"/>
</svg>
