<svg width="24" height="28" viewBox="0 0 24 28" fill="none" xmlns="http://www.w3.org/2000/svg">
<path d="M21.1875 3.5H16.375V2.625C16.375 1.17523 15.1998 0 13.75 0H10.25C8.80023 0 7.625 1.17523 7.625 2.625V3.5H2.8125C1.6044 3.5 0.625 4.4794 0.625 5.6875V7.4375C0.625 7.92077 1.01673 8.3125 1.5 8.3125H22.5C22.9833 8.3125 23.375 7.92077 23.375 7.4375V5.6875C23.375 4.4794 22.3956 3.5 21.1875 3.5ZM9.375 2.625C9.375 2.14266 9.76766 1.75 10.25 1.75H13.75C14.2323 1.75 14.625 2.14266 14.625 2.625V3.5H9.375V2.625Z" fill="#DB4446"/>
<path d="M2.28514 10.0625C2.12901 10.0625 2.0046 10.193 2.01204 10.349L2.73391 25.4997C2.80063 26.9019 3.95235 28 5.35563 28H18.6436C20.0469 28 21.1986 26.9019 21.2653 25.4997L21.9872 10.349C21.9946 10.193 21.8702 10.0625 21.7141 10.0625H2.28514ZM15.4996 12.25C15.4996 11.7666 15.8912 11.375 16.3746 11.375C16.8581 11.375 17.2496 11.7666 17.2496 12.25V23.625C17.2496 24.1084 16.8581 24.5 16.3746 24.5C15.8912 24.5 15.4996 24.1084 15.4996 23.625V12.25ZM11.1246 12.25C11.1246 11.7666 11.5162 11.375 11.9996 11.375C12.4831 11.375 12.8746 11.7666 12.8746 12.25V23.625C12.8746 24.1084 12.4831 24.5 11.9996 24.5C11.5162 24.5 11.1246 24.1084 11.1246 23.625V12.25ZM6.74961 12.25C6.74961 11.7666 7.14118 11.375 7.62461 11.375C8.10805 11.375 8.49961 11.7666 8.49961 12.25V23.625C8.49961 24.1084 8.10805 24.5 7.62461 24.5C7.14118 24.5 6.74961 24.1084 6.74961 23.625V12.25Z" fill="#DB4446"/>
</svg>
